<?xml version="1.0" encoding="UTF-8"?>
<svg id="Layer_2" data-name="Layer 2" xmlns="http://www.w3.org/2000/svg" viewBox="0 0 11.14 8.85">
  <defs>
    <style>
      .cls-1 {
        fill: #dc2626;
        stroke-width: 0px;
      }
    </style>
  </defs>
  <g id="Layer_1-2" data-name="Layer 1">
    <g>
      <polygon class="cls-1" points="4.75 8.56 3.78 8.55 2.61 8.82 1.43 8.85 .22 8.81 .14 7.73 .47 6.68 0 5.64 .59 4.59 .5 3.54 .51 2.5 .14 1.45 .38 .53 1.43 .59 2.6 .29 3.78 .73 5.19 .16 4.89 1.45 4.79 2.49 5.28 3.54 5.04 4.58 5.09 5.63 5.2 6.68 5.05 7.74 4.75 8.56"/>
      <polygon class="cls-1" points="9.71 .49 10.72 1.01 11.02 2.1 11.14 3.14 10.88 4.15 10.27 5.01 9.4 5.72 8.27 5.89 7.17 5.57 6.24 4.9 5.88 3.82 5.43 2.74 6.09 1.77 6.69 .9 7.62 .38 8.68 0 9.71 .49"/>
    </g>
  </g>
</svg>