<?xml version="1.0" encoding="UTF-8"?>
<svg id="Layer_2" data-name="Layer 2" xmlns="http://www.w3.org/2000/svg" viewBox="0 0 175.13 72.04">
  <defs>
    <style>
      .cls-1 {
        fill: #870000;
      }

      .cls-1, .cls-2 {
        stroke-width: 0px;
      }

      .cls-2 {
        fill: #fff;
      }
    </style>
  </defs>
  <g id="Layer_1-2" data-name="Layer 1">
    <path class="cls-2" d="m173.47,3.65c-1.46-1.78-3.55-2.7-6.2-2.73-.88-.01-1.75-.01-2.63-.02h-1.31c-3.36,0-5.44,1.12-6.74,2.55-1.56-1.67-3.71-2.61-6.12-2.61-.06,0-.18,0-.23,0-.69.02-1.39.02-2.08.02-.85,0-1.7,0-2.54-.02h-.7c-.86,0-1.68.12-2.45.35-.82-.24-1.71-.36-2.68-.36-5.88-.02-11.76-.04-17.69-.06-1.98,0-5.05.52-6.93,3.38-2.56-1.86-5.55-3.01-8.76-3.26-2.7-.21-5.33-.22-7.87-.23-.98,0-1.97,0-2.95-.02h-.45c-2.95,0-6.58,1.04-8.1,5.67-.31-1.34-.92-2.37-1.51-3.07-1.01-1.2-2.87-2.64-6.01-2.67-.86,0-1.71,0-2.57-.01-.79,0-1.58,0-2.46,0-2.51,0-4.69,1.03-6.16,2.76-2.42-1.64-5.28-2.73-8.41-3.07-.8-.09-1.61-.13-2.41-.13-4.75,0-9.43,1.56-13.38,4.23-.32-.3-.67-.59-1.05-.87-3.21-2.27-6.93-3.47-10.74-3.47h-.32C22.79.16,15.42,4.54,10.72,12.68c-3.31,5.73-3.86,11.8-1.61,17.59,0,0-.03,0-.03,0-4.45,0-7.36,2.41-8.21,6.77-.1.54-.2,1.08-.3,1.61-.1.57-.21,1.14-.32,1.72-.23,1.16-.85,4.25,1.38,7,1.31,1.6,2.91,2.27,4.25,2.55-.21,1.14-1.11,6.01-1.11,6.01-.38,2.06-.77,4.13-1.14,6.19-.59,3.25.72,5.43,1.54,6.43.83,1,2.71,2.7,6,2.74.93.01,1.86.02,2.79.02.73,0,1.45,0,2.18,0,.02,0,.07,0,.1,0,2.37,0,4.46-.93,5.92-2.51,2.17,2.51,5.1,2.52,6.2,2.52h1.96c.12,0,.24,0,.35,0,0,0,2.64,0,2.66,0,.79,0,1.55-.11,2.27-.31.76.2,1.57.32,2.46.32h2.41c.68,0,1.36,0,2.05.02.06,0,.19,0,.25,0,1.54,0,2.95-.38,4.16-1.07,1.17.68,2.55,1.07,4.05,1.07.04,0,.35,0,.35,0,.54,0,1.08-.02,1.62-.02.49,0,.99,0,1.48.04.19.01.37.02.54.02,1.52,0,2.92-.36,4.14-1.04,1.81,1.09,3.66,1.11,4.38,1.12,1.39.01,2.78.02,4.16.02h.32c.91,0,1.77-.12,2.55-.33.79.23,1.65.35,2.59.35,1.38,0,2.76,0,4.15,0h4.07c.32.04.64.07.97.07h5.04c1.35,0,2.71,0,4.06.01.02,0,.07,0,.09,0,1.8,0,3.44-.52,4.77-1.45,2.54,1.17,5.41,1.8,8.62,1.87.05,0,.1,0,.15,0,.42,0,.85-.04,1.27-.12.17-.03.37-.06.59-.09.96-.15,2.41-.37,3.92-.83.81-.25,1.56-.54,2.27-.84,1.29.99,2.89,1.52,4.63,1.52,1.61,0,4.86.02,4.87.02,3.68,0,6.74-2.41,7.63-5.93,3.87,1,7.58,1.24,10.66,1.31.05,0,.1,0,.15,0,.04,0,.08,0,.12,0,6.55-.11,11.93-1.09,16.94-3.08,3.27-1.3,7.44-3.31,10.68-7.36,3.01-3.77,3.93-8.19,2.58-12.45-.57-1.79-1.51-3.43-2.8-4.91.91-1.05,1.56-2.35,1.82-3.84.33-1.8.66-3.61.99-5.41.26-1.39.52-2.79.77-4.19l1.21-6.68c.54-2.97,1.07-5.94,1.62-8.9.48-2.6-.02-4.83-1.49-6.6Z"/>
    <g>
      <path class="cls-1" d="m53.99,55.02c.14-.25.3-.48.43-.74,2.57-5.23,5.16-10.46,7.7-15.71.44-.9,1-1.33,2.04-1.29,1.84.07,3.69.02,5.54.04,1.06.01,1.28.28,1.19,1.32-.69,8.53-1.37,17.07-2.06,25.6-.09,1.17-.26,1.34-1.44,1.34-1.51,0-3.03,0-4.54-.02-1.15-.01-1.26-.16-1.18-1.27.32-4.5.62-8.99.92-13.49,0-.08-.04-.17-.11-.46-.26.42-.47.69-.61.99-2.08,4.33-4.17,8.66-6.22,13-.39.82-.89,1.19-1.82,1.14-1.3-.07-2.6-.05-3.91-.02-.71.01-1.02-.27-1.1-.99-.49-4.6-1.01-9.2-1.52-13.8,0-.08-.07-.16-.23-.53-.39,1.27-.72,2.3-1.04,3.33-1.1,3.64-2.2,7.29-3.26,10.94-.23.78-.64,1.07-1.43,1.05-1.57-.04-3.15-.01-4.72-.02-1.14,0-1.29-.2-.95-1.39.83-2.94,1.68-5.87,2.53-8.8,1.6-5.54,3.2-11.09,4.8-16.63.35-1.22.56-1.4,1.84-1.4,1.88,0,3.76.04,5.63.01.78-.01,1.17.27,1.26,1.06.34,2.91.71,5.82,1.07,8.73.32,2.64.64,5.27.97,7.91.07.03.15.06.22.09Z"/>
      <path class="cls-1" d="m160.73,22.73c.14-.46.25-.73.3-1.01.76-4.16,1.52-8.33,2.28-12.49.01-.06.01-.12.02-.18.34-2.16.4-2.22,2.57-2.21,1.24,0,2.48,0,3.73.02,1.16.01,1.32.24,1.11,1.35-.98,5.35-1.94,10.71-2.91,16.06-.6,3.3-1.22,6.6-1.82,9.9-.11.61-.43.92-1.03.92-2,0-4,.04-5.99-.07-.39-.02-.89-.58-1.08-1.01-1.41-3.14-2.74-6.32-4.11-9.48-.81-1.89-1.63-3.77-2.46-5.65-.11-.26-.27-.5-.54-.98-.27,1.38-.49,2.49-.69,3.61-.75,4.13-1.51,8.27-2.24,12.4-.13.74-.44,1.12-1.25,1.11-1.7-.04-3.39-.03-5.09-.02-.78,0-1.01-.32-.87-1.08,1.33-7.19,2.64-14.39,3.95-21.59.28-1.52.59-3.03.85-4.55.13-.73.53-1.03,1.25-1.02,1.88.02,3.76.04,5.63,0,.86-.02,1.32.34,1.65,1.1,2.09,4.69,4.21,9.37,6.32,14.05.09.21.21.41.42.8Z"/>
      <path class="cls-1" d="m51.37,35.22c-5.7-.16-10.09-3.01-11.87-8.04-1.35-3.81-.71-7.52,1.06-11.06,3.12-6.26,10.33-10.82,17.79-10.01,6.48.7,11.17,6.32,10.65,12.84-.59,7.37-6.3,13.42-12.92,15.38-1.52.45-3.13.6-4.7.89Zm-5.13-13.2c.19.82.28,1.67.58,2.44,1.18,3.01,4.58,4.44,7.95,3.36,3.71-1.18,5.91-3.75,6.61-7.55.76-4.15-2.11-7.46-6.32-7.37-4.63.1-8.7,4.34-8.83,9.12Z"/>
      <path class="cls-1" d="m94.92,34.8c-1.7,0-3.39.01-5.09,0-.99-.01-1.13-.17-.95-1.14.75-4.13,1.51-8.27,2.27-12.4.78-4.25,1.58-8.5,2.32-12.76.32-1.8.41-1.95,2.26-1.92,3.57.06,7.16-.04,10.71.24,6.48.52,11.04,6.74,10.21,13.15-.98,7.51-8.13,14.92-17.83,14.9-1.3,0-2.6,0-3.91,0,0-.02,0-.05,0-.07Zm4.91-6.71c.23-.02.63-.03,1.02-.08,3.75-.42,6.45-2.33,7.85-5.85,1.39-3.49.05-7.08-3.23-8.21-1.52-.52-3.27-.43-4.91-.55-.2-.01-.58.36-.62.6-.76,4.01-1.51,8.02-2.21,12.04-.37,2.17-.32,2.18,2.1,2.05Z"/>
      <path class="cls-1" d="m82.16,65.62c-3.15,0-6.3,0-9.45,0-1.06,0-1.23-.2-1.04-1.26.86-4.7,1.73-9.39,2.59-14.09.67-3.66,1.35-7.31,1.99-10.97.32-1.83.39-1.94,2.25-1.93,5.9.03,11.81.06,17.71.09,1.22,0,1.36.18,1.15,1.4-.22,1.25-.48,2.49-.69,3.74-.16.93-.64,1.31-1.62,1.3-3.72-.05-7.45,0-11.17-.07-.83-.01-1.12.3-1.22,1.06-.12.96-.28,1.92-.52,2.85-.2.78.09.95.8.95,2.76,0,5.51.02,8.27.04,1.31,0,1.39.13,1.12,1.44-.19.92-.33,1.84-.49,2.77-.19,1.08-.47,1.33-1.57,1.33-2.76-.01-5.51-.01-8.27-.07-.79-.02-1.15.21-1.23,1.04-.08.9-.3,1.79-.49,2.67-.24,1.17-.17,1.27.99,1.27,3.78.02,7.57.04,11.35.06,1.29,0,1.35.08,1.13,1.36-.22,1.28-.45,2.56-.67,3.84-.15.83-.58,1.25-1.49,1.24-3.15-.03-6.3-.01-9.45-.01,0-.02,0-.05,0-.07Z"/>
      <path class="cls-1" d="m127.33,34.94c-3.09,0-6.18,0-9.27,0-1.3,0-1.43-.12-1.2-1.43.64-3.63,1.32-7.26,1.99-10.88.88-4.79,1.76-9.57,2.62-14.36.24-1.36.4-1.55,1.73-1.55,6.06.02,12.11.04,18.17.06,1.23,0,1.38.21,1.14,1.4-.26,1.27-.52,2.55-.72,3.83-.14.9-.61,1.2-1.49,1.19-3.75-.03-7.51,0-11.27-.05-.82-.01-1.12.25-1.2,1.05-.09.93-.31,1.85-.52,2.76-.18.78.02,1.1.88,1.09,2.76-.03,5.51,0,8.27.03,1.19,0,1.25.1,1.03,1.25-.19,1.01-.39,2.02-.53,3.04-.13.92-.61,1.27-1.54,1.25-2.79-.05-5.57-.02-8.36-.06-.71-.01-1.02.18-1.1.93-.11,1.05-.34,2.09-.57,3.12-.17.77.14.94.84.94,3.88,0,7.75.01,11.63.03,1.19,0,1.26.06,1.08,1.25-.2,1.31-.45,2.62-.69,3.93-.16.86-.61,1.27-1.56,1.26-3.12-.05-6.24-.02-9.36-.02v-.04Z"/>
      <path class="cls-1" d="m25.6,34.97c-6.03,0-10.43-2.64-12.29-7.21-1.73-4.25-1.12-8.42,1.12-12.29,3.54-6.11,8.87-9.45,16.02-9.57,2.63-.05,5.07.76,7.24,2.29.85.6.88.87.19,1.66-1.16,1.32-2.33,2.63-3.5,3.94-.43.48-.86.85-1.54.32-2.84-2.18-7.23-1.68-10.04,1.09-2.4,2.36-3.56,5.19-2.69,8.56.67,2.61,2.84,4.15,5.57,4.22,2.86.07,3.02-.05,3.58-2.76.17-.8.34-1.6.47-2.4.11-.68.46-1,1.16-.99,1.63.02,3.27,0,4.9.02.84.01,1.08.34.93,1.15-.5,2.7-1.01,5.4-1.48,8.11-.15.84-.51,1.41-1.3,1.81-2.82,1.43-5.83,1.94-8.34,2.05Z"/>
      <path class="cls-1" d="m105.58,66.14c-4.75-.1-8.1-1.67-10.61-4.94-.48-.63-.47-1.12.17-1.62,1.22-.95,2.43-1.9,3.62-2.89.69-.57,1.25-.57,1.87.11,1.09,1.2,2.32,2.23,3.93,2.66,1.23.33,2.46.3,3.65-.21.99-.43,1.64-1.21,1.72-2.27.04-.46-.22-1.15-.58-1.4-.87-.62-1.87-1.07-2.84-1.54-1.44-.7-2.95-1.27-4.33-2.06-5.11-2.94-4.12-8.33-1.69-11.19,1.97-2.32,4.6-3.37,7.53-3.76,3.4-.45,6.64-.06,9.49,2.08.34.25.66.53.97.82,1.18,1.13,1.17,1.57-.04,2.63-1.05.91-2.11,1.82-3.15,2.74-.56.49-1.01.44-1.58-.04-.77-.66-1.59-1.31-2.48-1.79-1.25-.67-2.58-.52-3.86,0-.77.32-1.29.87-1.36,1.76-.07.92.51,1.44,1.21,1.74,1.55.68,3.14,1.24,4.71,1.87.64.26,1.28.54,1.9.85,3.81,1.93,4.81,4.72,3.41,8.76-1.28,3.69-4.15,5.79-7.76,6.9-1.46.45-3.01.6-3.89.76Z"/>
      <path class="cls-1" d="m11.67,43.55c-2.05,0-3.98,0-5.91,0-1.5,0-1.61-.16-1.3-1.66.23-1.16.42-2.32.64-3.48.23-1.2.37-1.31,1.63-1.3,6.36.02,12.72.04,19.07.06.39,0,.79.01,1.18,0,.73-.01.99.37.87,1.04-.27,1.46-.55,2.91-.83,4.36-.14.75-.6,1.04-1.36,1.03-1.85-.03-3.69.01-5.54-.03-.67-.02-.99.18-1.11.86-1.04,5.83-2.1,11.66-3.16,17.49-.15.8-.31,1.6-.46,2.4-.14.73-.59,1.08-1.34,1.07-1.7-.02-3.39,0-5.09-.03-.88-.01-1.15-.33-.99-1.21.54-3,1.1-6,1.66-9.01.66-3.57,1.32-7.13,1.97-10.7.04-.23.04-.47.06-.9Z"/>
      <path class="cls-1" d="m77.32,34.71c-2.75,0-5.51,0-8.26,0-1.1,0-1.21-.17-1.01-1.23,1-5.44,1.99-10.88,2.99-16.32.59-3.21,1.2-6.41,1.78-9.63.14-.77.57-1.07,1.32-1.06,1.7.02,3.39,0,5.09.02.91,0,1.14.25.98,1.18-.43,2.56-.91,5.12-1.38,7.67-.74,4.01-1.47,8.03-2.23,12.03-.14.73.3.72.79.73,3.06.02,6.12.05,9.17.07,1.34.01,1.49.19,1.24,1.48-.26,1.33-.54,2.67-.76,4.01-.13.82-.57,1.12-1.36,1.11-2.79-.02-5.57,0-8.36,0v-.06Z"/>
      <path class="cls-1" d="m142.67,61.02c-4.88-.11-9.86-.69-14.45-3-1.28-.64-2.53-1.46-3.6-2.41-3.34-2.96-3.48-6.91-.47-10.24,2.23-2.46,5.06-4.01,8.14-5.11,8.08-2.9,16.3-3.32,24.63-1.2,2.77.71,5.38,1.84,7.61,3.69,1.23,1.02,2.22,2.23,2.71,3.78.76,2.39.04,4.48-1.45,6.34-2.12,2.66-5.02,4.22-8.11,5.45-4.76,1.89-9.74,2.59-15,2.68Zm-.48-2.31c6.73,0,12.21-1.02,16.42-3.1,1.6-.79,3.17-1.82,4.46-3.05,2.65-2.52,2.46-5.69-.37-7.99-1.09-.88-2.34-1.62-3.63-2.19-3.73-1.66-7.71-2.2-11.76-2.28-5.28-.11-10.44.56-15.36,2.58-2.45,1.01-4.76,2.27-6.33,4.52-1.42,2.04-1.4,4.26.32,6.05,1.02,1.07,2.28,2.01,3.6,2.69,4.3,2.2,8.99,2.69,12.66,2.77Z"/>
      <path class="cls-1" d="m28.96,65.41c-.79,0-1.57,0-2.36,0-1.28,0-1.35-.06-1.14-1.28.45-2.59.93-5.17,1.4-7.76.88-4.81,1.76-9.63,2.64-14.44.22-1.22.43-2.44.66-3.66.13-.7.48-1.12,1.29-1.1,1.69.04,3.39,0,5.08.02,1.03,0,1.24.31,1.06,1.27-.88,4.72-1.75,9.45-2.61,14.17-.73,3.95-1.45,7.9-2.17,11.86-.12.66-.49.93-1.13.92-.91,0-1.82,0-2.72,0h0Z"/>
      <path class="cls-1" d="m122.22,59.61c.82,0,1.64,0,2.45,0,.69,0,1,.29.86,1.02-.27,1.39-.51,2.8-.76,4.19-.11.62-.46.96-1.12.96-1.67,0-3.33-.01-5-.02-.59,0-.82-.29-.72-.87.27-1.49.48-2.99.84-4.45.08-.34.62-.75.99-.8.8-.12,1.63-.04,2.45-.04h0Z"/>
      <path class="cls-1" d="m153.58,53.98c.32-1.83.62-3.52.92-5.21.18-1.01.39-2.01.54-3.03.09-.64.33-.95,1.05-.91,1.15.06,2.3.05,3.44.02.92-.02,1.67.28,2.14,1.09.51.88.29,1.73-.17,2.58-.15.27-.27.68-.17.93.81,1.97-.23,4.21-2.35,4.48-1.72.22-3.48.04-5.4.04Zm2.68-1.75c.74,0,1.42.16,1.96-.05.43-.17.9-.75.98-1.21.09-.59-.45-.89-1.09-.92-1.44-.07-1.44-.08-1.71,1.38-.04.2-.07.41-.14.8Zm2.02-5.64c-1.02-.01-1.22.23-1.24,1.38-.01.65.41.54.79.55,1.06.03,1.81-.45,1.74-1.14-.08-.77-.69-.8-1.28-.8Z"/>
      <path class="cls-1" d="m153.32,44.82c-.49,2.33-.76,4.5-1.41,6.56-.79,2.52-4.26,3.62-6.52,2.24-.82-.5-1.27-1.27-1.16-2.21.19-1.68.46-3.35.77-5.01.33-1.73.6-1.87,2.42-1.51.03,0,.05.04.18.14-.25,1.41-.52,2.88-.78,4.36-.05.3-.13.59-.17.89-.09.69-.07,1.38.71,1.67.79.29,1.56.12,2.02-.59.33-.51.52-1.15.65-1.76.28-1.33.5-2.67.71-4.02.09-.54.32-.81.89-.78.47.03.95,0,1.69,0Z"/>
      <path class="cls-1" d="m131.56,54.16c-2.68-.12-4.38-2.07-4.01-4.69.47-3.31,4.18-5.67,7.24-4.6,1.24.43,1.28.64.41,1.63-.45.52-.78.85-1.64.49-1.82-.77-4,1.12-3.71,3.08.21,1.46,1.59,2.22,3.11,1.54,1.24-.56,1.09.55,1.42,1.02.49.72-.29.81-.65.95-.69.27-1.44.4-2.16.59Z"/>
      <path class="cls-1" d="m142.42,51.88c-.13.67-.19,1.18-.35,1.65-.07.19-.37.43-.56.44-1.81.03-3.61.02-5.58.02.12-.81.21-1.5.33-2.19.39-2.14.78-4.27,1.21-6.4.05-.23.32-.55.52-.58.58-.08,1.18-.03,1.91-.03-.27,1.53-.51,2.91-.76,4.3-.12.68-.25,1.36-.4,2.04-.13.58.13.77.66.76.93-.01,1.86,0,3.01,0Z"/>
    </g>
  </g>
</svg>