<?xml version="1.0" encoding="UTF-8"?>
<svg id="Layer_2" data-name="Layer 2" xmlns="http://www.w3.org/2000/svg" viewBox="0 0 132.38 163.94">
  <defs>
    <style>
      .cls-1, .cls-2 {
        stroke-width: 0px;
      }

      .cls-2 {
        fill: #fcc101;
      }
    </style>
  </defs>
  <g id="Layer_1-2" data-name="Layer 1">
    <g>
      <path class="cls-1" d="m66.14,163.94c-19.02,0-38.05,0-57.07,0-2.61,0-4.85-.91-6.65-2.82-1.55-1.65-2.4-3.62-2.4-5.88-.01-30.12-.03-60.25.01-90.37,0-6.46,1.14-12.77,3.12-18.93,3.11-9.63,8.15-18.13,15.14-25.44,7.44-7.79,16.27-13.45,26.47-16.95,5.03-1.73,10.19-2.83,15.48-3.28,12.02-1.02,23.51.98,34.42,6.17,6.5,3.09,12.33,7.15,17.5,12.16,7.63,7.39,13.19,16.1,16.66,26.15,1.23,3.57,2.16,7.22,2.73,10.95.3,1.98.54,3.97.64,5.97.14,2.83.18,5.67.19,8.51.01,28.31,0,56.62,0,84.92,0,4.45-3.33,8.23-7.74,8.78-.48.06-.98.08-1.47.08-19.01,0-38.02,0-57.03,0h0Zm45.71-64.86c1.83.1,3.55.1,5.25-.24,2.89-.58,5.37-1.85,7.25-4.19,1-1.25,1.3-2.64.9-4.18-1.55-5.95-3.11-11.9-4.66-17.86-.34-1.29-.61-2.6-1.26-3.79-1.38-2.53-3.55-4.1-6.19-5.09-.46-.17-.94-.32-1.48-.51.17-.09.26-.13.35-.18.65-.35,1.32-.68,1.96-1.06.72-.43.91-1.04.7-1.83-.18-.7-.32-1.41-.45-2.13-.35-1.95-.57-3.94-1.05-5.86-1.83-7.33-5.3-13.8-10.43-19.36-.29-.31-.56-.59-.52-1.07.02-.23-.03-.47-.08-.71-.68-3.14-3.62-5.24-6.8-4.88-.21.02-.47-.03-.65-.14-4.82-3.12-10.04-5.3-15.64-6.58-.26-.06-.53-.21-.72-.38-1.59-1.41-3.48-2.14-5.57-2.35-2.16-.21-4.19.22-6.12,1.22-.32.16-.7.23-1.06.27-.51.06-1.04.07-1.56.1-2.43.15-4.83.52-7.21,1.04-4.74,1.04-9.25,2.72-13.53,4.98-.87.46-1.7.91-2.71.78-.03,0-.06,0-.09,0-3.18.51-5.41,2.22-6.65,5.21-.09.22-.24.45-.42.6-3.07,2.59-5.88,5.42-8.31,8.62-3.45,4.55-5.93,9.51-6.43,15.31-.2,2.23-.12,4.44.31,6.65.21,1.06.71,1.83,1.72,2.27.24.1.44.27.76.48-.24.01-.36.04-.47.03-1.43-.17-2.85-.02-4.26.19-2.43.37-4.64,1.24-6.49,2.9-1.03.92-1.57,2.06-1.55,3.46.05,2.85.1,5.71.16,8.56.03,1.66.06,3.33.09,4.99.04,2.62.08,5.23.12,7.85.04,3,1.31,5.31,3.84,6.92,2.15,1.37,4.52,1.81,7.03,1.7.44-.02.88.04,1.33.07.23.02.32.16.3.4-.08,1.04-.15,2.07-.21,3.11-.14,2.64-.23,5.3.32,7.9,1.03,4.88,3.76,8.21,8.73,9.49,2.67.69,5.4.96,8.12,1.29,2.58.32,5.16.54,7.75.75,2.72.21,5.45.38,8.18.51,2.27.11,4.54.15,6.82.18,1.92.02,3.84,0,5.75-.05,3.65-.08,7.31-.19,10.96-.3,1.16-.04,2.31-.11,3.47-.19,2.04-.14,4.09-.28,6.13-.43,1.54-.12,3.08-.24,4.62-.38,1.76-.16,3.52-.3,5.27-.52,1.79-.22,3.6-.42,5.36-.82,3.9-.89,6.64-3.18,8.03-6.99,1.26-3.43,1.23-6.98,1.04-10.55-.09-1.72-.02-3.44-.02-5.22Zm-15.29,46.58c.15-.11.26-.19.38-.28,1.55-1.14,1.5-3.26-.11-4.31-.69-.45-1.47-.65-2.28-.66-2.16-.03-4.31-.02-6.47-.05-.42,0-.52.14-.51.54.02,3.36,0,6.72,0,10.08,0,.16.01.32.02.48.1.02.15.04.21.04,2.2,0,4.4.03,6.6-.01.93-.02,1.86-.17,2.71-.63,1.86-1.01,2-3.54.26-4.72-.24-.16-.51-.29-.82-.46Zm-76.67,0c.17-.12.3-.21.42-.31,1.45-1.09,1.45-3.1,0-4.18-.72-.53-1.56-.75-2.43-.76-2.15-.04-4.31-.02-6.47-.05-.43,0-.51.15-.51.54.01,3.36,0,6.72,0,10.08,0,.16.01.32.02.48.11.01.19.03.26.03,2.17,0,4.34.05,6.51-.02.86-.03,1.74-.24,2.54-.54,1.05-.4,1.64-1.24,1.67-2.41.03-1.21-.52-2.07-1.59-2.62-.13-.07-.26-.13-.44-.23Zm101.4,2.43c.14-.1.22-.17.3-.22,2.12-1.25,2.22-4.13,1.1-5.68-.87-1.2-2.11-1.73-3.53-1.79-1.91-.08-3.83-.03-5.75-.05-.39,0-.5.11-.5.5.02,3.39,0,6.78.01,10.17,0,.14.02.28.03.46,1.11,0,2.18-.02,3.25,0,.37,0,.46-.13.45-.47-.02-.65-.01-1.31,0-1.96,0-.13.05-.32.15-.38.27-.19.95,0,1.14.28.49.72.99,1.45,1.47,2.18.16.25.34.35.65.35,1.03-.02,2.05,0,3.08,0,.12,0,.25-.02.44-.03-.78-1.14-1.52-2.23-2.29-3.36Zm-39.73,3.4c-.8-1.18-1.55-2.28-2.3-3.39.14-.1.23-.18.33-.24,2.11-1.27,2.21-4.2,1-5.76-.87-1.12-2.08-1.64-3.45-1.69-1.91-.07-3.83-.02-5.75-.05-.42,0-.51.14-.51.54.01,3.36,0,6.72,0,10.08,0,.16.01.32.02.52,1.18,0,2.32,0,3.46-.02.08,0,.22-.22.22-.34.02-.68,0-1.37.02-2.05,0-.13.04-.32.14-.39.25-.19.96,0,1.15.27.51.75,1.01,1.51,1.53,2.25.09.13.27.27.4.27,1.2.02,2.41.01,3.73.01Zm-45.75,0c1.19,0,2.31,0,3.42,0,.29,0,.3-.18.3-.38,0-.67,0-1.34,0-2.01,0-.15.05-.35.16-.42.28-.19.94,0,1.14.29.5.74,1.01,1.47,1.49,2.22.15.23.32.3.59.3,1.03-.01,2.05,0,3.08,0,.14,0,.27-.01.47-.03-.79-1.16-1.53-2.26-2.28-3.37.12-.09.17-.14.23-.17,1.81-1.05,2.25-3.18,1.59-4.9-.68-1.77-2.16-2.5-3.92-2.6-1.93-.11-3.86-.03-5.79-.06-.41,0-.49.14-.49.52.01,3.37,0,6.75,0,10.12v.49Zm-1.84-7.43s.02,0,.02,0c0-1.09,0-2.17,0-3.26,0-.33-.11-.45-.44-.44-.89.02-1.79.02-2.68,0-.39-.01-.54.09-.53.52.02,1.87.02,3.75,0,5.62,0,.37-.06.74-.16,1.09-.21.75-.83,1.18-1.59,1.18-.76,0-1.39-.45-1.58-1.2-.11-.41-.16-.85-.16-1.27-.02-1.81,0-3.63,0-5.44,0-.27,0-.5-.38-.5-1,.02-1.99.01-2.99,0-.27,0-.36.1-.36.37.03,2.23-.02,4.46.11,6.69.11,1.85,1.1,3.21,2.87,3.9,1.1.43,2.24.48,3.42.37,2.54-.22,4.36-2.06,4.44-4.6.03-1.01,0-2.02,0-3.03Zm29.82,3.14c.21-.01.4-.04.59-.04,1.23,0,2.47,0,3.7-.01.14,0,.39-.13.4-.21.03-.8.02-1.59.02-2.44h-4.73c0-.31.02-.58,0-.84-.05-.42.1-.56.54-.56,1.46.03,2.91,0,4.37.02.38,0,.49-.12.47-.48-.03-.59-.03-1.19,0-1.78.02-.4-.13-.5-.51-.5-2.68.01-5.35.01-8.03,0-.4,0-.53.09-.53.52.02,3.38.01,6.75.01,10.13,0,.14.01.29.02.44.08.02.14.04.2.04,2.9,0,5.8,0,8.7,0,.26,0,.34-.11.34-.34,0-.67-.02-1.34,0-2.01.01-.35-.11-.46-.46-.45-1.53.02-3.06,0-4.59,0-.16,0-.32-.01-.49-.02v-1.48Zm-5.04-5c-.3-.28-.54-.53-.8-.74-1.41-1.13-3.06-1.4-4.82-1.34-3.1.11-6.15,2.43-5.74,6.43.22,2.19,1.34,3.77,3.35,4.62,2.57,1.08,5.06.62,7.43-.68.14-.07.23-.33.24-.51.02-1.01.01-2.02.01-3.03,0-.41,0-.82,0-1.28-.96,0-1.87.02-2.77,0-.35,0-.43.13-.42.45.01.67.02,1.34-.01,2.01,0,.16-.15.41-.29.46-.73.26-1.48.3-2.22-.01-1.34-.56-1.97-2.15-1.47-3.69.51-1.53,1.84-2.03,3.33-1.68.66.15,1.24.63,1.92,1,.67-.59,1.44-1.27,2.26-1.99Zm40.05,9.3c1.24,0,2.39,0,3.55-.01.11,0,.27-.16.32-.28.19-.43.36-.88.52-1.33.09-.25.22-.34.49-.34,1.2.01,2.41.01,3.61,0,.24,0,.38.07.46.31.16.46.34.92.53,1.37.05.12.21.27.33.27,1.17.02,2.34.01,3.55.01-.03-.12-.04-.21-.08-.29-1.53-3.51-3.07-7.02-4.59-10.53-.11-.25-.26-.32-.51-.32-.94,0-1.87.02-2.81,0-.39-.01-.57.12-.72.48-.9,2.1-1.83,4.19-2.74,6.28-.62,1.43-1.24,2.85-1.9,4.37Z"/>
      <path class="cls-2" d="m111.85,99.08c0,1.78-.07,3.5.02,5.22.19,3.58.22,7.12-1.04,10.55-1.4,3.81-4.14,6.1-8.03,6.99-1.76.4-3.56.6-5.36.82-1.75.22-3.51.36-5.27.52-1.54.14-3.08.26-4.62.38-2.04.15-4.09.3-6.13.43-1.16.08-2.31.15-3.47.19-3.65.11-7.31.22-10.96.3-1.92.04-3.84.07-5.75.05-2.27-.03-4.55-.07-6.82-.18-2.73-.13-5.46-.3-8.18-.51-2.59-.2-5.18-.43-7.75-.75-2.72-.34-5.45-.61-8.12-1.29-4.97-1.28-7.7-4.61-8.73-9.49-.55-2.61-.45-5.26-.32-7.9.05-1.04.13-2.07.21-3.11.02-.24-.06-.38-.3-.4-.44-.04-.89-.09-1.33-.07-2.51.12-4.88-.32-7.03-1.7-2.53-1.62-3.8-3.93-3.84-6.92-.04-2.62-.08-5.23-.12-7.85-.03-1.66-.06-3.33-.09-4.99-.05-2.85-.1-5.71-.16-8.56-.03-1.4.52-2.54,1.55-3.46,1.85-1.67,4.07-2.53,6.49-2.9,1.41-.21,2.83-.36,4.26-.19.11.01.22-.01.47-.03-.32-.21-.53-.38-.76-.48-1.01-.43-1.51-1.21-1.72-2.27-.43-2.2-.5-4.41-.31-6.65.51-5.8,2.98-10.76,6.43-15.31,2.43-3.2,5.24-6.04,8.31-8.62.18-.15.33-.38.42-.6,1.24-2.99,3.47-4.7,6.65-5.21.03,0,.06,0,.09,0,1.02.13,1.85-.32,2.71-.78,4.29-2.26,8.79-3.94,13.53-4.98,2.38-.52,4.78-.89,7.21-1.04.52-.03,1.04-.04,1.56-.1.36-.05.75-.11,1.06-.27,1.93-.99,3.96-1.43,6.12-1.22,2.09.2,3.98.93,5.57,2.35.2.18.47.32.72.38,5.6,1.29,10.81,3.46,15.64,6.58.18.11.44.16.65.14,3.18-.37,6.12,1.73,6.8,4.88.05.23.1.47.08.71-.05.48.23.76.52,1.07,5.14,5.56,8.61,12.03,10.43,19.36.48,1.92.7,3.91,1.05,5.86.13.71.27,1.43.45,2.13.21.79.02,1.4-.7,1.83-.64.38-1.31.71-1.96,1.06-.09.05-.18.09-.35.18.54.19,1.02.34,1.48.51,2.64.99,4.81,2.56,6.19,5.09.65,1.19.92,2.5,1.26,3.79,1.56,5.95,3.11,11.9,4.66,17.86.4,1.54.1,2.94-.9,4.18-1.87,2.34-4.36,3.62-7.25,4.19-1.7.34-3.42.34-5.25.24ZM68.49,20.3c-3.83,0-6.62.26-10,.89-5.1.95-9.93,2.68-14.53,5.06-5.56,2.89-10.51,6.61-14.84,11.14-2.99,3.12-5.59,6.52-7.41,10.47-1.97,4.28-2.71,8.79-2.41,13.49.06.9.54,1.34,1.24,1.66.76.35,1.58.39,2.4.34.96-.07,1.93-.12,2.88-.24,2.91-.38,5.83-.71,8.72-1.19,5.32-.88,10.59-2.07,15.96-2.66,2.2-.24,4.41-.46,6.61-.49,3.22-.05,6.45.04,9.67.16,2.13.08,4.27.26,6.39.46,2.38.22,4.75.51,7.12.77,2.79.31,5.57.63,8.36.91,2.85.28,5.7.6,8.55.76,2.87.16,5.76.19,8.64.2,1.93,0,3.86-.09,5.79-.2.68-.04,1.37-.23,2.04-.4.24-.06.44-.23.38-.57-.22-1.15-.4-2.31-.63-3.45-1.06-5.31-2.91-10.32-5.66-15-4.17-7.12-9.89-12.63-17.19-16.48-7.19-3.79-14.87-5.59-22.1-5.63ZM21.76,101.05c0,.19,0,.32,0,.45.11,1.82.22,3.64.35,5.47.13,1.84.29,3.67.81,5.45,1.18,4.1,3.67,6.89,7.97,7.76,1.75.35,3.54.56,5.32.77,2.28.27,4.57.5,6.86.69,2.22.18,4.44.34,6.67.43,3.03.13,6.06.28,9.09.28,5.41,0,10.82-.1,16.23-.17,1.04-.01,2.08-.06,3.12-.12,2.45-.13,4.89-.27,7.34-.41,1.62-.09,3.23-.18,4.85-.3,2.15-.15,4.29-.31,6.44-.51,1.78-.17,3.57-.34,5.34-.64,1.91-.33,3.68-1.07,5.1-2.45,1.6-1.55,2.45-3.51,3.01-5.62.66-2.49.68-5.05.79-7.6.05-1.29.18-2.57.3-3.86.03-.37.14-.73.22-1.14-1.77.9-3.49,1.67-5.45,1.76-.5.02-1.02-.04-1.48.34-1.33,1.09-2.56,2.27-3.6,3.64-.58.77-1.11,1.58-1.73,2.32-.82.98-1.9,1.48-3.17,1.21-.75-.16-1.49-.51-2.16-.9-3.59-2.12-7.33-3.91-11.24-5.37-.88-.33-1.75-.52-2.69-.5-.89.02-1.78-.05-2.67-.08-2.94-.11-5.88-.29-8.82-.33-3.24-.04-6.48.03-9.72.09-.85.02-1.76.02-2.54.3-4.91,1.73-9.54,4.03-13.91,6.87-.4.26-.81.5-1.24.69-1.37.6-2.65.41-3.76-.6-.45-.41-.84-.89-1.19-1.38-1.19-1.63-2.58-3.07-4.18-4.31-.89-.69-1.81-1.18-3-1.26-1.82-.12-3.62-.43-5.43-.67-.6-.08-1.18-.2-1.82-.31Zm34.9-13.09c.31.4.31.6-.05.89-.21.17-.44.33-.68.41-.72.21-1.45.4-2.19.55-.31.06-.45.13-.34.48.11.37.14.76.23,1.13.18.79.24,1.62.76,2.3.59.76,1.38,1.2,2.27,1.49,1.96.64,3.95.56,5.94.13,1.59-.34,2.99-1.07,4.07-2.32.19-.22.25-.44.18-.73-1.69-6.44-3.37-12.88-5.05-19.32-.23-.88-.68-1.64-1.31-2.29-.98-1.01-2.19-1.62-3.51-2.03-2.09-.65-4.22-.75-6.39-.55-2.26.21-4.4.78-6.43,1.81-.62.31-1.11.67-1.1,1.45,0,.15-.05.29-.08.44-1.03,5.05-2.07,10.11-3.11,15.16-.14.66-.28,1.32-.43,2.04-.16-.12-.27-.2-.37-.28-1.7-1.51-3.4-3.02-5.1-4.54-.85-.76-1.78-1.38-2.92-1.64-.21-.05-.43-.11-.63-.16-.01-.53.2-.78.68-.82.67-.05,1.3.13,1.89.43.24.12.43.13.65-.06.77-.67,1.62-1.27,2.32-2.01,1.53-1.61,2.69-3.44,2.75-5.77.05-1.86-.58-3.4-2.11-4.52-1.62-1.2-3.47-1.43-5.39-1.18-.8.1-1.57.41-2.34.65-.34.11-.54.37-.68.71-1.19,2.77-2.39,5.53-3.6,8.29-.06.14-.22.24-.33.35-.16-.16-.33-.31-.46-.49-.05-.07,0-.23.04-.34.4-.99.75-2,1.23-2.95.44-.86.42-1.72.25-2.6-.33-1.76-1.56-2.67-3.17-3.14-1.69-.48-3.41-.36-5.12-.05-1.29.23-2.48.69-3.53,1.5-.28.22-.43.46-.4.83.05.73.07,1.45.08,2.18.06,3.3.12,6.6.18,9.9.03,1.98.06,3.95.09,5.93.01.97.02,1.93.03,2.9.02,1.46.63,2.58,1.91,3.3.42.24.87.45,1.33.6,1.66.55,3.34.42,5.02.12,1.27-.23,2.46-.69,3.49-1.49.16-.12.39-.3.39-.45-.01-.63.03-1.3-.18-1.87-.54-1.43-1.21-2.81-1.81-4.21-.18-.42-.3-.87-.41-1.31-.06-.26.01-.51.33-.59.34-.09.43.13.54.38.65,1.56,1.3,3.12,1.98,4.68.63,1.45,1.5,2.74,2.81,3.67,1.91,1.36,4.03,1.45,6.21.92,1.64-.4,2.84-1.38,3.61-2.88.14-.27.26-.55.42-.9.36,1.31,1.2,2.11,2.28,2.7,1.22.67,2.53.99,3.91,1.1,2.27.17,4.4-.25,6.35-1.47.31-.19.57-.47.83-.73.08-.09.11-.27.09-.4-.16-.96-.35-1.92-.5-2.89-.04-.29-.15-.42-.43-.44-.4-.03-.81-.04-1.19-.14-.67-.18-1.34-.37-1.97-.66-.47-.21-.5-.58-.23-1.01,2.83,1.42,5.62,1.3,8.43-.18Zm35.56,2.09c-.06-2.47-.13-4.93-.17-7.4-.07-3.57-.13-7.13-.18-10.7-.03-1.98-.94-3.31-2.81-4.01-1.58-.59-3.22-.65-4.87-.4-1.44.22-2.8.68-3.98,1.56-.14.1-.33.25-.34.38-.02.48-.11.96.19,1.42.8,1.27,1.57,2.56,2.33,3.85.15.26.27.57.3.87.01.14-.19.32-.34.44-.03.03-.25-.13-.34-.23-.16-.2-.27-.42-.41-.64-1.23-1.89-2.47-3.78-3.69-5.68-.52-.82-1.28-1.24-2.18-1.49-1.47-.42-2.96-.44-4.46-.22-1.15.17-2.27.47-3.26,1.12-.61.4-.96.94-.91,1.71.05.8.06,1.6.08,2.41.06,3.3.12,6.6.18,9.9.04,2.3.06,4.61.1,6.91.01.74,0,1.5.14,2.22.29,1.47,1.36,2.28,2.68,2.79,1.43.55,2.93.62,4.43.52,1.61-.11,3.12-.58,4.49-1.44.13-.08.32-.21.32-.33.02-.45.09-.89-.19-1.33-.94-1.42-1.85-2.87-2.76-4.32-.15-.25-.25-.54-.32-.82-.06-.26.02-.55.32-.59.13-.02.33.17.43.31,1.49,2.22,2.98,4.44,4.46,6.67.38.58.91.9,1.56,1.1,1.47.46,2.97.59,4.49.47,1.1-.08,2.18-.29,3.16-.83,1.06-.58,1.62-1.45,1.58-2.68-.02-.52,0-1.04,0-1.56Zm15.16-1.09c.16.8.34,1.6.48,2.41.18,1.04.74,1.81,1.64,2.32.46.26.96.48,1.47.63,2.02.58,4.05.47,6.07-.05,1.38-.35,2.58-1.03,3.57-2.08.29-.32.36-.61.25-1.03-1.59-6.02-3.17-12.04-4.71-18.08-.45-1.76-1.15-3.3-2.75-4.3-1.54-.97-3.25-1.44-5.03-1.63-1.72-.19-3.44-.12-5.15.17-1.95.33-3.8.92-5.52,1.92-.29.17-.45.39-.52.72-1.3,6.38-2.61,12.75-3.92,19.12-.45,2.19.19,3.62,2.16,4.71.3.17.61.32.92.44,1.75.7,3.57.85,5.43.61,1.55-.2,3-.72,4.27-1.66.63-.47.65-.56.46-1.29-.03-.11-.06-.23-.08-.35-.13-.83-.26-1.66-.4-2.52-.53-.07-1.07-.09-1.58-.21-.66-.16-1.31-.36-1.92-.65-.47-.22-.49-.64-.2-1,2.84,1.42,5.63,1.3,8.4-.19.3.34.32.65-.05.89-.43.28-.9.52-1.39.68-.59.19-1.21.27-1.89.41Zm-53.89,13.11s-.01-.06-.02-.09c-.46,0-.92-.03-1.37,0-.72.07-1.48.06-2.14.31-2.9,1.09-5.64,2.49-8.3,4.08-.5.3-1,.58-1.52.84-.39.2-.76.13-1.05-.2-.28-.32-.54-.67-.81-1-.87-1.04-1.74-2.07-2.6-3.1-.33-.39-.71-.57-1.24-.53-.46.04-.92-.04-1.38-.07-.03.05-.05.11-.08.16.09.05.19.09.27.16,1.52,1.22,2.81,2.64,3.94,4.22.31.43.65.85,1.04,1.22.66.63,1.44.8,2.3.44.37-.16.73-.34,1.06-.55,3.18-2.02,6.51-3.74,10-5.15.63-.25,1.26-.5,1.89-.74Zm49.24-.52s-.04-.1-.06-.14c-.53.03-1.06.04-1.58.11-.21.03-.48.12-.6.28-.92,1.15-1.83,2.3-2.69,3.49-.84,1.16-1.1,1.24-2.37.58-1.64-.86-3.31-1.67-4.95-2.53-1.77-.94-3.64-1.36-5.66-1.05.13.06.25.12.38.17,3.32,1.23,6.5,2.76,9.55,4.55.34.2.71.39,1.08.52.86.3,1.66.17,2.3-.5.39-.4.71-.88,1.05-1.32.76-.97,1.51-1.95,2.29-2.89.38-.45.84-.83,1.26-1.24Z"/>
      <path class="cls-2" d="m96.56,145.66c.31.17.58.3.82.46,1.74,1.19,1.6,3.72-.26,4.72-.85.46-1.77.61-2.71.63-2.2.04-4.4.01-6.6.01-.06,0-.11-.02-.21-.04,0-.16-.02-.32-.02-.48,0-3.36,0-6.72,0-10.08,0-.4.09-.54.51-.54,2.16.03,4.31.01,6.47.05.81.01,1.59.21,2.28.66,1.61,1.05,1.66,3.18.11,4.31-.12.08-.23.17-.38.28Zm-3.91,1.38s0,.02,0,.03c-.36,0-.71-.03-1.07.01-.12.01-.3.19-.31.3-.04.41-.03.83,0,1.24,0,.11.18.29.27.29.83,0,1.66,0,2.49-.05.51-.03.8-.4.81-.85,0-.46-.3-.82-.82-.89-.45-.06-.91-.06-1.37-.09Zm-1.39-4.1c0,.52-.01.98.01,1.43,0,.1.15.28.23.28.68,0,1.36,0,2.04-.06.52-.05.77-.38.77-.81,0-.44-.3-.79-.83-.82-.72-.05-1.44-.01-2.23-.01Z"/>
      <path class="cls-2" d="m19.89,145.66c.19.1.31.17.44.23,1.06.55,1.61,1.41,1.59,2.62-.03,1.17-.61,2.01-1.67,2.41-.81.3-1.69.51-2.54.54-2.17.08-4.34.02-6.51.02-.07,0-.14-.02-.26-.03,0-.17-.02-.33-.02-.48,0-3.36,0-6.72,0-10.08,0-.39.08-.55.51-.54,2.16.03,4.31,0,6.47.05.87.02,1.71.23,2.43.76,1.46,1.08,1.46,3.1,0,4.18-.13.09-.26.19-.42.31Zm-5.29,1.5c0,.5,0,1.02,0,1.53,0,.08.13.22.2.22.9-.01,1.81,0,2.7-.09.42-.04.66-.39.66-.83,0-.44-.24-.8-.66-.82-.95-.06-1.91-.02-2.91-.02Zm0-4.22c0,.53-.01,1,.01,1.47,0,.09.17.25.26.25.65,0,1.3.01,1.95-.06.58-.06.85-.39.83-.85-.02-.45-.35-.78-.9-.81-.69-.03-1.39,0-2.15,0Z"/>
      <path class="cls-2" d="m121.29,148.1c.77,1.13,1.51,2.22,2.29,3.36-.19.01-.32.03-.44.03-1.03,0-2.05-.01-3.08,0-.31,0-.49-.1-.65-.35-.48-.73-.98-1.46-1.47-2.18-.19-.28-.87-.47-1.14-.28-.09.07-.14.25-.15.38-.01.65-.02,1.31,0,1.96,0,.33-.07.47-.45.47-1.07-.03-2.14,0-3.25,0-.01-.18-.03-.32-.03-.46,0-3.39,0-6.78-.01-10.17,0-.39.11-.51.5-.5,1.92.03,3.84-.02,5.75.05,1.41.06,2.66.59,3.53,1.79,1.12,1.54,1.01,4.43-1.1,5.68-.09.05-.17.12-.3.22Zm-4.68-3.54s.03,0,.04,0c0,.33-.03.66.01.98.02.13.18.34.28.34.58.01,1.16.02,1.73-.06.59-.08.92-.55.96-1.16.04-.68-.24-1.16-.83-1.35-.25-.08-.52-.1-.79-.1-.43,0-1.02-.13-1.23.09-.24.25-.13.83-.17,1.27Z"/>
      <path class="cls-2" d="m81.56,151.49c-1.32,0-2.52,0-3.73-.01-.14,0-.32-.15-.4-.27-.52-.74-1.02-1.5-1.53-2.25-.19-.27-.9-.46-1.15-.27-.09.07-.13.26-.14.39-.01.68,0,1.37-.02,2.05,0,.12-.14.34-.22.34-1.14.02-2.28.02-3.46.02,0-.2-.02-.36-.02-.52,0-3.36,0-6.72,0-10.08,0-.4.09-.55.51-.54,1.92.03,3.84-.02,5.75.05,1.37.05,2.58.57,3.45,1.69,1.2,1.56,1.1,4.49-1,5.76-.1.06-.19.14-.33.24.76,1.11,1.5,2.21,2.3,3.39Zm-6.98-6.94s.02,0,.04,0c0,.34-.02.68.01,1.02.01.11.18.3.27.3.58,0,1.16.01,1.73-.06.54-.07.89-.5.96-1.03.12-.98-.42-1.59-1.42-1.59-.5,0-.99.05-1.49.08-.03.43-.06.85-.1,1.28Z"/>
      <path class="cls-2" d="m35.82,151.49v-.49c0-3.37,0-6.75,0-10.12,0-.38.08-.52.49-.52,1.93.03,3.87-.05,5.79.06,1.76.1,3.24.83,3.92,2.6.66,1.72.22,3.85-1.59,4.9-.06.04-.12.09-.23.17.75,1.11,1.49,2.21,2.28,3.37-.2.01-.34.03-.47.03-1.03,0-2.05,0-3.08,0-.27,0-.44-.07-.59-.3-.49-.75-.99-1.48-1.49-2.22-.2-.29-.85-.48-1.14-.29-.1.07-.15.27-.16.42-.02.67,0,1.34,0,2.01,0,.2,0,.38-.3.38-1.11,0-2.23,0-3.42,0Zm4.77-8.33s0,.03,0,.04c-.22,0-.45.01-.67,0-.26-.02-.38.08-.38.35,0,.67-.01,1.33.02,2,0,.12.18.33.29.33.56.01,1.13.02,1.68-.05.61-.08.96-.54,1-1.18.04-.68-.24-1.17-.84-1.34-.35-.1-.73-.1-1.09-.14Z"/>
      <path class="cls-2" d="m33.98,144.06c0,1.01.03,2.02,0,3.03-.08,2.54-1.9,4.38-4.44,4.6-1.18.1-2.32.05-3.42-.37-1.76-.69-2.76-2.04-2.87-3.9-.13-2.22-.07-4.46-.11-6.69,0-.27.08-.37.36-.37,1,0,1.99.01,2.99,0,.39,0,.38.23.38.5,0,1.81-.01,3.63,0,5.44,0,.43.05.86.16,1.27.2.75.82,1.19,1.58,1.2.77,0,1.38-.43,1.59-1.18.1-.35.15-.73.16-1.09.02-1.87.02-3.75,0-5.62,0-.43.14-.53.53-.52.89.02,1.78.02,2.68,0,.33,0,.44.12.44.44-.01,1.09,0,2.17,0,3.26,0,0-.02,0-.02,0Z"/>
      <path class="cls-2" d="m63.8,147.2v1.48c.18,0,.34.02.49.02,1.53,0,3.06.01,4.59,0,.35,0,.47.1.46.45-.02.67-.01,1.34,0,2.01,0,.24-.08.35-.34.34-2.9,0-5.8,0-8.7,0-.06,0-.11-.02-.2-.04,0-.15-.02-.3-.02-.44,0-3.38,0-6.75-.01-10.13,0-.43.14-.52.53-.52,2.68.01,5.35.01,8.03,0,.38,0,.53.09.51.5-.03.59-.03,1.19,0,1.78.02.37-.09.49-.47.48-1.46-.02-2.91,0-4.37-.02-.44,0-.59.13-.54.56.03.26,0,.53,0,.84h4.73c0,.84.01,1.64-.02,2.44,0,.08-.26.2-.4.21-1.23.02-2.47,0-3.7.01-.19,0-.38.02-.59.04Z"/>
      <path class="cls-2" d="m58.76,142.19c-.82.72-1.59,1.4-2.26,1.99-.68-.37-1.27-.84-1.92-1-1.49-.35-2.82.15-3.33,1.68-.51,1.53.13,3.13,1.47,3.69.74.31,1.48.27,2.22.01.14-.05.28-.3.29-.46.03-.67.03-1.34.01-2.01,0-.31.07-.45.42-.45.9.02,1.81,0,2.77,0,0,.46,0,.87,0,1.28,0,1.01.01,2.02-.01,3.03,0,.17-.1.43-.24.51-2.37,1.3-4.86,1.76-7.43.68-2.01-.85-3.13-2.43-3.35-4.62-.4-4,2.64-6.33,5.74-6.43,1.76-.06,3.41.21,4.82,1.34.26.21.5.46.8.74Z"/>
      <path class="cls-2" d="m98.81,151.49c.66-1.52,1.28-2.95,1.9-4.37.92-2.09,1.84-4.18,2.74-6.28.15-.35.33-.49.72-.48.94.03,1.87.02,2.81,0,.25,0,.41.07.51.32,1.53,3.51,3.06,7.02,4.59,10.53.03.08.05.16.08.29-1.21,0-2.38,0-3.55-.01-.11,0-.28-.15-.33-.27-.2-.45-.37-.91-.53-1.37-.08-.24-.22-.31-.46-.31-1.2,0-2.41.01-3.61,0-.27,0-.4.09-.49.34-.15.45-.32.89-.52,1.33-.05.12-.21.28-.32.28-1.16.02-2.31.01-3.55.01Zm7.81-4.62c-.38-.98-.72-1.88-1.07-2.77-.05,0-.09.01-.14.02-.34.9-.69,1.8-1.05,2.75h2.26Z"/>
      <path class="cls-1" d="m68.49,20.3c7.23.04,14.91,1.84,22.1,5.63,7.3,3.85,13.01,9.36,17.19,16.48,2.74,4.68,4.59,9.69,5.66,15,.23,1.15.41,2.3.63,3.45.06.33-.14.51-.38.57-.67.17-1.35.36-2.04.4-1.93.11-3.86.2-5.79.2-2.88-.01-5.76-.04-8.64-.2-2.86-.16-5.71-.48-8.55-.76-2.79-.28-5.57-.6-8.36-.91-2.37-.26-4.74-.55-7.12-.77-2.13-.2-4.26-.38-6.39-.46-3.22-.11-6.45-.2-9.67-.16-2.21.03-4.41.25-6.61.49-5.37.58-10.64,1.78-15.96,2.66-2.89.48-5.81.82-8.72,1.19-.96.12-1.92.18-2.88.24-.82.06-1.64.02-2.4-.34-.7-.32-1.18-.76-1.24-1.66-.3-4.7.44-9.2,2.41-13.49,1.82-3.95,4.42-7.35,7.41-10.47,4.33-4.53,9.28-8.25,14.84-11.14,4.6-2.39,9.43-4.11,14.53-5.06,3.38-.63,6.17-.89,10-.89Zm36.21,25.54c-.31-.14-.37.09-.4.29-.09.54-.18,1.09-.2,1.63,0,.39.05.81.2,1.17.26.63.95.95,1.62.82.55-.1.94-.63,1-1.32.09-1.03-.42-1.77-1.17-2.37-.29-.23-.63-.38-.99-.6-.03.21-.05.3-.06.38h0Zm-82.29,11.34c.1-.29.19-.48.24-.68.61-2.68,1.19-5.36,2.25-7.9.75-1.81,1.61-3.57,2.42-5.36.11-.24.19-.49.28-.73-2.8,1.79-6.16,11.31-5.18,14.67Zm18.72-11.15s-.1,0-.14.01c-.03.11-.07.21-.07.32-.06.74-.1,1.48-.19,2.22-.13,1.17-.52,2.25-1.3,3.16-.1.12-.3.15-.45.22-.06-.15-.18-.3-.16-.44.1-.73.15-1.49.39-2.17.33-.95.82-1.84,1.23-2.76.1-.21.16-.44.24-.65-.2.02-.31.07-.37.16-.6.83-1.24,1.63-1.77,2.5-.56.93-.79,1.98-.76,3.07.03.94.71,1.55,1.52,1.36.52-.12.87-.49,1.16-.92.95-1.39,1.14-2.94.97-4.56-.06-.51-.21-1.02-.32-1.53Zm-8.52-8.77c3.35-2.93,7.05-5.35,10.89-7.56.05-.03.08-.11.13-.18-2.57-.29-10.61,5.29-11.02,7.73Zm44.25-12.87c-.05.03-.1.06-.15.09.16.3.28.64.49.9,1.02,1.34,2.42,1.97,4.08,2.04.92.04,1.55-.41,1.67-1.15.11-.72-.23-1.27-.81-1.66-1.32-.9-2.79-1.12-4.34-.82-.35.07-.7.2-1.04.3.01.05.02.1.03.16.32.02.65.05.97.07,1.27.07,2.51.26,3.6,1,.28.19.68.43.5.78-.1.2-.58.31-.88.29-1.25-.07-2.36-.54-3.33-1.34-.26-.22-.52-.44-.78-.65Zm11.31,10.39c-.08.15-.12.2-.13.26-.29,1.88,1.61,4.27,3.51,4.43.74.06,1.39-.35,1.62-1.06.24-.77-.13-1.35-.65-1.86-.91-.9-2.01-1.46-3.25-1.75-.27-.06-.55-.1-.83-.15-.01.04-.03.08-.04.12.15.11.28.24.44.34.6.38,1.25.7,1.81,1.13.52.4.98.9,1.43,1.39.1.1.11.4.03.51-.1.14-.33.26-.51.26-.24,0-.5-.09-.72-.19-1.07-.48-1.75-1.35-2.25-2.37-.16-.31-.28-.64-.46-1.05Zm-33.53,4.95s-.1-.04-.15-.05c-.72.75-1.21,1.64-1.41,2.66-.16.85-.15,1.72.3,2.52.32.58.74,1.06,1.44,1.03.74-.03,1.1-.59,1.31-1.23.55-1.71.13-3.24-.91-4.65-.08-.11-.21-.19-.31-.28-.06.21-.03.38,0,.54.17.74.37,1.46.49,2.21.12.72-.02,1.42-.36,2.07-.18.34-.37.36-.6.04-.16-.23-.3-.48-.38-.75-.32-1-.07-1.96.24-2.92.12-.39.22-.79.33-1.18Zm-11.19-4.89s-.08.08-.11.11c0,.03-.02.06-.01.08.05.11.1.21.16.32.65,1.24.59,2.59.51,3.92-.02.31-.19.63-.57.64-.4,0-.7-.2-.78-.6-.06-.31-.09-.65-.05-.97.1-.75.26-1.49.38-2.23.05-.32.08-.65.12-1-.1.03-.12.03-.13.04-.93,1.29-1.44,2.73-1.33,4.33.06.84.89,1.49,1.73,1.5.8,0,1.45-.51,1.58-1.4.2-1.37,0-2.7-.71-3.9-.19-.32-.53-.56-.8-.84Zm28.67,1.05c-.1-1.58-.97-3-2.22-3.51-.36-.14-.58-.09-.74.28-.72,1.69-.7,3.33.23,4.94.65,1.13,1.87.76,2.23-.04.24-.53.34-1.12.5-1.68Zm-9.18-6c-.06,0-.12-.01-.18-.02,0-.46-.05-.93,0-1.38.13-1.04.64-1.93,1.24-2.77.11-.16.19-.34.28-.51-.24.02-.4.09-.54.19-1.54,1.16-2.24,2.69-1.97,4.61.13.92.8,1.27,1.62.82,1.97-1.08,2.62-3.42,1.41-5.35-.07-.11-.18-.19-.27-.28-.04,0-.09.02-.13.02.46,1.89.35,3.57-1.48,4.66Zm-31.57,16.59c-.04-.06-.08-.11-.12-.17-.1,0-.21,0-.3.03-1.75.72-2.96,1.9-3.24,3.86-.12.82.38,1.53,1.13,1.58.53.04.95-.19,1.31-.56.91-.95,1.48-2.08,1.67-3.38.07-.45.01-.91.01-1.37-.06,0-.12,0-.18-.01-.16.42-.31.85-.47,1.27-.4,1.04-.95,1.99-1.77,2.75-.13.12-.36.14-.54.21-.03-.18-.1-.36-.08-.53.11-1.15.72-2.02,1.55-2.77.34-.31.69-.6,1.03-.9Zm18.19-16.61c0,.9.68,1.46,1.56,1.28,1.45-.29,3.11-2.07,3.3-3.53.1-.76-.1-.98-.85-.84-1.21.24-2.33.7-3.26,1.54-.45.41-.76.9-.76,1.55Zm17.4,21.25c-.84-.13-1.5-.47-2.04-.99-.53-.5-.98-1.07-1.51-1.66,0,.25-.03.46,0,.65.25,1.35,1.95,2.9,3.31,3.02.82.08,1.28-.34,1.27-1.15,0-.77-.38-1.36-.97-1.81-.66-.51-1.43-.78-2.24-.91-.32-.05-.65-.07-.98-.1-.02.05-.03.11-.05.16.23.14.47.28.7.42.67.41,1.36.79,2,1.23.34.24.51.63.51,1.13Zm13.2-12.72s-.08,0-.13,0c-.05.07-.12.13-.15.21-.55,1.5-.55,2.96.3,4.36.24.4.58.73,1.11.66.56-.07.83-.46.99-.96.46-1.4-.17-3.47-1.32-4.36-.12-.1-.28-.15-.43-.22-.03.03-.06.05-.09.08.72,1.35,1.3,2.73.74,4.29-.99-1.18-.9-2.65-1.03-4.05Zm20.82,13.45c-.06.02-.12.03-.18.05,0,.37-.05.74,0,1.1.24,1.37.96,2.42,2.25,2.99.77.34,1.49-.15,1.45-.98-.02-.43-.14-.89-.35-1.25-.59-.99-1.52-1.6-2.58-2.03-.1-.04-.22-.04-.33-.06.11.29.28.5.46.7.51.58,1.04,1.14,1.51,1.75.17.22.21.54.3.81l-.15.07c-1.31-.63-1.89-1.85-2.39-3.13Zm-13.22-4s-.07-.08-.11-.12c-.2.06-.4.11-.58.2-1.23.61-2.1,2.31-1.87,3.66.07.41.29.73.71.82.47.11.88-.05,1.24-.35.71-.6,1.17-1.34,1.35-2.25.1-.52.15-1.06-.15-1.66-.29.69-.49,1.29-.78,1.85-.29.56-.68,1.06-1.34,1.39-.08-1.49.63-2.56,1.54-3.54Zm12.99-11.58c-.54-.12-.89.02-1.19.27-1.06.88-1.34,2.06-1.23,3.36.04.44.51.79.98.83.69.06,1.26-.29,1.63-1.01.43-.84.45-1.74.29-2.65-.04-.25-.15-.49-.22-.73-.05,0-.11,0-.16,0-.07.38-.15.76-.21,1.14-.12.72-.25,1.44-.78,2-.1.1-.28.12-.43.18-.04-.13-.1-.27-.1-.4,0-1.17.36-2.19,1.42-3Z"/>
      <path class="cls-1" d="m21.76,101.05c.63.11,1.22.23,1.82.31,1.81.24,3.61.55,5.43.67,1.19.08,2.11.57,3,1.26,1.6,1.24,2.99,2.67,4.18,4.31.36.49.75.97,1.19,1.38,1.11,1.01,2.38,1.21,3.76.6.43-.19.85-.43,1.24-.69,4.36-2.84,9-5.14,13.91-6.87.79-.28,1.69-.28,2.54-.3,3.24-.06,6.48-.13,9.72-.09,2.94.04,5.88.21,8.82.33.89.03,1.78.1,2.67.08.94-.02,1.81.17,2.69.5,3.9,1.46,7.65,3.25,11.24,5.37.67.39,1.41.74,2.16.9,1.27.27,2.35-.23,3.17-1.21.62-.74,1.15-1.55,1.73-2.32,1.04-1.37,2.27-2.55,3.6-3.64.46-.38.99-.32,1.48-.34,1.95-.09,3.68-.86,5.45-1.76-.08.41-.18.77-.22,1.14-.12,1.28-.24,2.57-.3,3.86-.1,2.55-.13,5.11-.79,7.6-.56,2.11-1.41,4.07-3.01,5.62-1.43,1.38-3.19,2.12-5.1,2.45-1.76.31-3.55.47-5.34.64-2.14.2-4.29.36-6.44.51-1.61.12-3.23.2-4.85.3-2.45.14-4.89.28-7.34.41-1.04.05-2.08.11-3.12.12-5.41.07-10.82.17-16.23.17-3.03,0-6.06-.15-9.09-.28-2.22-.1-4.45-.25-6.67-.43-2.29-.19-4.58-.42-6.86-.69-1.78-.21-3.57-.42-5.32-.77-4.3-.87-6.79-3.66-7.97-7.76-.51-1.78-.68-3.61-.81-5.45-.13-1.82-.23-3.64-.35-5.47,0-.13,0-.26,0-.45Zm86.24,11.45s-.09,0-.14-.01c-.04.09-.1.18-.13.27-.71,2.14-2.21,3.52-4.25,4.34-1.1.44-2.24.78-3.36,1.17-.23.08-.44.19-.66.29,0,.04.02.08.02.12.11.02.21.06.32.06,1.95,0,3.81-.38,5.49-1.4,1.35-.82,2.36-1.96,2.7-3.55.09-.41.01-.86.01-1.29Zm-83.14-9.27c-.08-.02-.16-.03-.24-.05-.16.34-.36.67-.48,1.02-.55,1.56-.6,3.17-.34,4.79.21,1.31.66,2.56,1.45,3.65.15.2.34.37.51.55.06-.03.13-.05.19-.08-1.23-3.2-1.6-6.49-1.09-9.88Zm68.24,16.57c-1.2-.66-7.8-.39-8.67.34.99.66,7.59.42,8.67-.34Zm-65.9-10.8c.03-.22.1-.39.07-.55-.22-1.58-.45-3.16-.68-4.74-.03-.17-.14-.32-.23-.5-.9.76-.34,5.12.84,5.79Z"/>
      <path class="cls-1" d="m56.66,87.97c-2.8,1.48-5.59,1.6-8.43.18-.27.42-.24.8.23,1.01.63.29,1.3.48,1.97.66.38.1.79.1,1.19.14.28.02.39.15.43.44.15.96.34,1.92.5,2.89.02.13,0,.31-.09.4-.26.27-.52.54-.83.73-1.94,1.22-4.07,1.64-6.35,1.47-1.38-.11-2.69-.42-3.91-1.1-1.08-.59-1.92-1.39-2.28-2.7-.16.35-.28.63-.42.9-.77,1.5-1.97,2.48-3.61,2.88-2.19.54-4.3.45-6.21-.92-1.31-.93-2.18-2.22-2.81-3.67-.67-1.55-1.32-3.11-1.98-4.68-.1-.25-.2-.47-.54-.38-.32.09-.39.33-.33.59.11.44.23.89.41,1.31.6,1.41,1.27,2.78,1.81,4.21.21.57.17,1.25.18,1.87,0,.15-.23.33-.39.45-1.03.8-2.21,1.26-3.49,1.49-1.68.3-3.36.43-5.02-.12-.46-.15-.91-.37-1.33-.6-1.28-.72-1.89-1.84-1.91-3.3-.01-.97-.02-1.93-.03-2.9-.03-1.98-.06-3.95-.09-5.93-.06-3.3-.12-6.6-.18-9.9-.01-.73-.03-1.46-.08-2.18-.02-.37.12-.61.4-.83,1.05-.81,2.24-1.27,3.53-1.5,1.71-.31,3.43-.43,5.12.05,1.61.46,2.84,1.37,3.17,3.14.17.88.19,1.74-.25,2.6-.48.95-.83,1.96-1.23,2.95-.04.11-.09.27-.04.34.12.18.3.33.46.49.11-.12.27-.21.33-.35,1.21-2.76,2.41-5.52,3.6-8.29.15-.34.34-.6.68-.71.77-.24,1.55-.55,2.34-.65,1.92-.25,3.77-.02,5.39,1.18,1.52,1.13,2.15,2.66,2.11,4.52-.06,2.33-1.22,4.16-2.75,5.77-.7.74-1.55,1.34-2.32,2.01-.21.19-.4.18-.65.06-.59-.3-1.21-.49-1.89-.43-.48.04-.69.28-.68.82.21.05.42.11.63.16,1.14.26,2.07.88,2.92,1.64,1.7,1.52,3.4,3.03,5.1,4.54.1.09.21.16.37.28.15-.71.3-1.37.43-2.04,1.04-5.05,2.07-10.1,3.11-15.16.03-.15.08-.29.08-.44,0-.77.48-1.13,1.1-1.45,2.03-1.03,4.17-1.6,6.43-1.81,2.16-.2,4.3-.1,6.39.55,1.32.41,2.54,1.01,3.51,2.03.63.65,1.08,1.42,1.31,2.29,1.69,6.44,3.37,12.88,5.05,19.32.08.29.02.51-.18.73-1.08,1.25-2.48,1.98-4.07,2.32-1.98.43-3.97.51-5.94-.13-.89-.29-1.69-.73-2.27-1.49-.52-.68-.58-1.51-.76-2.3-.09-.38-.12-.77-.23-1.13-.11-.35.03-.42.34-.48.74-.15,1.47-.34,2.19-.55.25-.07.48-.24.68-.41.36-.29.36-.5.05-.89Zm-5.2-10.44s-.02.06-.02.07c.26,1.23.51,2.47.77,3.7.1.46.56.67.96.43.07-.04.13-.17.12-.24-.24-1.18-.47-2.36-.76-3.52-.14-.57-.52-.69-1.07-.44Z"/>
      <path class="cls-1" d="m92.22,90.05c0,.52-.01,1.04,0,1.56.04,1.23-.52,2.1-1.58,2.68-.99.54-2.07.74-3.16.83-1.52.11-3.02-.01-4.49-.47-.65-.2-1.18-.52-1.56-1.1-1.47-2.23-2.96-4.45-4.46-6.67-.1-.14-.3-.33-.43-.31-.3.05-.38.33-.32.59.07.28.17.57.32.82.91,1.45,1.82,2.9,2.76,4.32.29.44.22.88.19,1.33,0,.12-.19.25-.32.33-1.37.87-2.88,1.34-4.49,1.44-1.5.1-3,.03-4.43-.52-1.33-.51-2.39-1.31-2.68-2.79-.14-.72-.12-1.48-.14-2.22-.04-2.3-.06-4.61-.1-6.91-.05-3.3-.12-6.6-.18-9.9-.02-.8-.03-1.6-.08-2.41-.05-.77.3-1.31.91-1.71.99-.65,2.11-.96,3.26-1.12,1.5-.22,2.99-.2,4.46.22.9.26,1.66.68,2.18,1.49,1.22,1.9,2.46,3.79,3.69,5.68.14.21.25.44.41.64.09.11.31.26.34.23.15-.12.35-.3.34-.44-.03-.3-.14-.61-.3-.87-.76-1.29-1.53-2.58-2.33-3.85-.29-.46-.21-.94-.19-1.42,0-.13.2-.28.34-.38,1.18-.88,2.54-1.34,3.98-1.56,1.65-.25,3.29-.19,4.87.4,1.87.69,2.78,2.02,2.81,4.01.05,3.57.11,7.13.18,10.7.05,2.47.12,4.93.17,7.4Z"/>
      <path class="cls-1" d="m107.38,88.97c.68-.14,1.3-.22,1.89-.41.49-.16.96-.4,1.39-.68.37-.24.35-.54.05-.89-2.77,1.48-5.56,1.61-8.4.19-.29.36-.27.77.2,1,.61.29,1.27.49,1.92.65.51.13,1.05.15,1.58.21.13.86.26,1.69.4,2.52.02.12.05.23.08.35.19.73.17.82-.46,1.29-1.27.94-2.72,1.45-4.27,1.66-1.85.24-3.68.09-5.43-.61-.32-.13-.63-.28-.92-.44-1.96-1.09-2.61-2.52-2.16-4.71,1.31-6.37,2.62-12.75,3.92-19.12.07-.33.22-.55.52-.72,1.72-1,3.57-1.59,5.52-1.92,1.71-.29,3.43-.36,5.15-.17,1.79.2,3.49.67,5.03,1.63,1.6,1,2.3,2.54,2.75,4.3,1.53,6.03,3.12,12.05,4.71,18.08.11.42.05.72-.25,1.03-.98,1.06-2.18,1.73-3.57,2.08-2.02.51-4.05.63-6.07.05-.51-.15-1.01-.37-1.47-.63-.89-.51-1.46-1.28-1.64-2.32-.14-.81-.32-1.62-.48-2.41Zm-.58-8.16c.32,0,.62,0,.53-.41-.23-1.12-.46-2.23-.73-3.34-.06-.23-.28-.45-.48-.59-.1-.08-.35-.03-.49.04-.08.04-.11.26-.09.38.23,1.16.47,2.32.71,3.48.07.33.23.51.54.45Z"/>
      <path class="cls-1" d="m53.48,102.08c-.63.25-1.26.49-1.89.74-3.49,1.4-6.82,3.13-10,5.15-.34.21-.7.4-1.06.55-.86.36-1.64.19-2.3-.44-.38-.37-.73-.78-1.04-1.22-1.13-1.58-2.43-3-3.94-4.22-.08-.06-.18-.11-.27-.16.03-.05.05-.11.08-.16.46.03.92.1,1.38.07.53-.04.92.14,1.24.53.87,1.04,1.74,2.07,2.6,3.1.28.33.53.68.81,1,.29.33.66.4,1.05.2.51-.26,1.02-.55,1.52-.84,2.66-1.58,5.41-2.99,8.3-4.08.66-.25,1.42-.24,2.14-.31.45-.04.91,0,1.37,0,0,.03.01.06.02.09Z"/>
      <path class="cls-1" d="m102.72,101.56c-.42.41-.88.79-1.26,1.24-.79.95-1.53,1.93-2.29,2.89-.35.44-.67.91-1.05,1.32-.64.67-1.44.79-2.3.5-.38-.13-.74-.32-1.08-.52-3.06-1.78-6.23-3.31-9.55-4.55-.13-.05-.25-.11-.38-.17,2.03-.31,3.89.11,5.66,1.05,1.64.87,3.31,1.67,4.95,2.53,1.26.66,1.53.58,2.37-.58.86-1.19,1.77-2.34,2.69-3.49.13-.16.39-.25.6-.28.52-.07,1.05-.08,1.58-.11.02.05.04.1.06.14Z"/>
      <path class="cls-1" d="m92.65,147.04c.46.03.92.03,1.37.09.53.07.83.42.82.89,0,.45-.31.81-.81.85-.83.06-1.66.06-2.49.05-.1,0-.26-.18-.27-.29-.03-.41-.04-.83,0-1.24.01-.11.19-.29.31-.3.35-.04.71-.01,1.07-.01,0,0,0-.02,0-.03Z"/>
      <path class="cls-1" d="m91.27,142.94c.78,0,1.51-.03,2.23.01.53.03.82.38.83.82,0,.43-.25.76-.77.81-.67.07-1.36.06-2.04.06-.08,0-.23-.18-.23-.28-.03-.46-.01-.92-.01-1.43Z"/>
      <path class="cls-1" d="m14.6,147.16c1,0,1.96-.04,2.91.02.42.02.66.39.66.82,0,.44-.24.79-.66.83-.9.08-1.8.07-2.7.09-.07,0-.2-.14-.2-.22-.02-.52,0-1.03,0-1.53Z"/>
      <path class="cls-1" d="m14.6,142.93c.76,0,1.46-.02,2.15,0,.55.03.88.36.9.81.02.46-.25.79-.83.85-.64.07-1.3.06-1.95.06-.09,0-.25-.16-.26-.25-.03-.47-.01-.94-.01-1.47Z"/>
      <path class="cls-1" d="m116.61,144.56c.04-.44-.07-1.02.17-1.27.21-.22.81-.09,1.23-.09.26,0,.54.02.79.1.6.19.88.67.83,1.35-.04.62-.38,1.08-.96,1.16-.57.08-1.15.07-1.73.06-.1,0-.27-.21-.28-.34-.04-.32-.01-.65-.01-.98-.01,0-.03,0-.04,0Z"/>
      <path class="cls-1" d="m74.58,144.55c.03-.43.06-.85.1-1.28.5-.03.99-.08,1.49-.08,1.01,0,1.54.61,1.42,1.59-.06.52-.42.95-.96,1.03-.57.07-1.15.07-1.73.06-.1,0-.26-.19-.27-.3-.04-.34-.01-.68-.01-1.02-.01,0-.02,0-.04,0Z"/>
      <path class="cls-1" d="m40.59,143.16c.36.04.74.04,1.09.14.6.17.88.66.84,1.34-.04.63-.39,1.1-1,1.18-.55.07-1.12.07-1.68.05-.1,0-.28-.21-.29-.33-.03-.67-.01-1.33-.02-2,0-.27.12-.37.38-.35.22.01.44,0,.67,0,0-.01,0-.03,0-.04Z"/>
      <path class="cls-1" d="m106.62,146.87h-2.26c.36-.95.71-1.85,1.05-2.75.05,0,.09-.01.14-.02.34.89.69,1.79,1.07,2.77Z"/>
      <path class="cls-2" d="m22.4,57.18c-.98-3.36,2.38-12.88,5.18-14.67-.09.24-.17.49-.28.73-.81,1.78-1.67,3.55-2.42,5.36-1.05,2.54-1.64,5.23-2.25,7.9-.04.2-.13.39-.24.68Z"/>
      <path class="cls-2" d="m41.12,46.02c.11.51.26,1.01.32,1.53.17,1.62-.02,3.17-.97,4.56-.29.43-.64.79-1.16.92-.81.2-1.5-.42-1.52-1.36-.03-1.09.21-2.14.76-3.07.52-.87,1.17-1.68,1.77-2.5.06-.09.18-.14.37-.16-.08.22-.15.44-.24.65-.41.92-.9,1.81-1.23,2.76-.24.69-.29,1.44-.39,2.17-.02.14.1.29.16.44.15-.07.35-.1.45-.22.78-.91,1.16-1.99,1.3-3.16.08-.74.12-1.48.19-2.22,0-.11.05-.21.07-.32.05,0,.1,0,.14-.01Z"/>
      <path class="cls-2" d="m32.6,37.26c.41-2.44,8.45-8.02,11.02-7.73-.05.07-.08.15-.13.18-3.84,2.21-7.54,4.63-10.89,7.56Z"/>
      <path class="cls-2" d="m76.85,24.39c.26.22.52.44.78.65.97.8,2.08,1.27,3.33,1.34.3.02.78-.09.88-.29.18-.35-.22-.59-.5-.78-1.08-.74-2.33-.92-3.6-1-.32-.02-.65-.04-.97-.07-.01-.05-.02-.1-.03-.16.35-.1.69-.23,1.04-.3,1.55-.31,3.01-.08,4.34.82.58.39.93.94.81,1.66-.12.75-.74,1.19-1.67,1.15-1.66-.06-3.06-.7-4.08-2.04-.21-.27-.33-.6-.49-.9.05-.03.1-.06.15-.09Z"/>
      <path class="cls-2" d="m88.16,34.78c.18.41.31.74.46,1.05.5,1.02,1.18,1.89,2.25,2.37.23.1.48.19.72.19.18,0,.41-.12.51-.26.08-.12.06-.41-.03-.51-.45-.49-.9-.99-1.43-1.39-.56-.43-1.21-.75-1.81-1.13-.16-.1-.29-.22-.44-.34.01-.04.03-.08.04-.12.28.05.56.09.83.15,1.24.29,2.34.85,3.25,1.75.52.51.89,1.09.65,1.86-.22.71-.88,1.12-1.62,1.06-1.91-.16-3.81-2.55-3.51-4.43,0-.05.05-.1.13-.26Z"/>
      <path class="cls-2" d="m54.63,39.74c-.11.39-.21.79-.33,1.18-.31.96-.55,1.92-.24,2.92.08.26.22.52.38.75.23.32.42.3.6-.04.34-.65.48-1.35.36-2.07-.12-.74-.33-1.47-.49-2.21-.04-.16-.07-.33,0-.54.1.09.23.17.31.28,1.04,1.4,1.46,2.93.91,4.65-.21.64-.57,1.2-1.31,1.23-.7.03-1.12-.45-1.44-1.03-.44-.8-.46-1.66-.3-2.52.19-1.02.68-1.91,1.41-2.66.05.02.1.04.15.05Z"/>
      <path class="cls-2" d="m43.45,34.84c.27.28.61.52.8.84.7,1.21.91,2.54.71,3.9-.13.89-.78,1.41-1.58,1.4-.84,0-1.67-.66-1.73-1.5-.11-1.6.39-3.04,1.33-4.33,0,0,.03,0,.13-.04-.04.36-.07.68-.12,1-.12.74-.28,1.49-.38,2.23-.04.32-.02.65.05.97.08.4.38.6.78.6.39,0,.55-.32.57-.64.08-1.34.14-2.68-.51-3.92-.05-.1-.11-.21-.16-.32,0-.02,0-.06.01-.08.04-.04.08-.08.11-.11Z"/>
      <path class="cls-2" d="m72.11,35.9c-.16.56-.26,1.15-.5,1.68-.36.8-1.57,1.17-2.23.04-.93-1.62-.94-3.26-.23-4.94.16-.37.38-.43.74-.28,1.25.5,2.12,1.92,2.22,3.51Zm-2.59-3.27c-.03.25-.06.45-.07.66-.09,1.28.03,2.51.73,3.63.07.12.19.21.29.31.11-.12.27-.23.34-.38.6-1.34,0-3.34-1.29-4.22Z"/>
      <path class="cls-2" d="m62.93,29.9c1.82-1.09,1.93-2.77,1.48-4.66.04,0,.09-.02.13-.02.09.09.2.18.27.28,1.2,1.93.56,4.27-1.41,5.35-.82.45-1.48.1-1.62-.82-.28-1.93.43-3.45,1.97-4.61.14-.1.3-.17.54-.19-.09.17-.17.35-.28.51-.6.84-1.11,1.73-1.24,2.77-.05.45,0,.92,0,1.38.06,0,.12.01.18.02Z"/>
      <path class="cls-2" d="m31.36,46.49c-.34.3-.69.6-1.03.9-.83.75-1.44,1.62-1.55,2.77-.02.17.05.35.08.53.18-.07.41-.08.54-.21.82-.76,1.37-1.71,1.77-2.75.16-.42.31-.85.47-1.27.06,0,.12,0,.18.01,0,.46.06.92-.01,1.37-.2,1.3-.76,2.43-1.67,3.38-.35.37-.78.6-1.31.56-.75-.06-1.25-.77-1.13-1.58.28-1.96,1.5-3.13,3.24-3.86.09-.04.2-.02.3-.03.04.06.08.11.12.17Z"/>
      <path class="cls-2" d="m49.55,29.87c0-.64.31-1.14.76-1.55.93-.84,2.05-1.3,3.26-1.54.74-.15.94.08.85.84-.19,1.46-1.86,3.24-3.3,3.53-.88.18-1.56-.38-1.56-1.28Zm4.66-2.82s-.05-.06-.08-.1c-.5.29-1.01.55-1.49.87-.58.39-1.16.79-1.66,1.26-.22.21-.44.74-.33.91.21.33.63.06.91-.09,1.22-.64,2-1.68,2.65-2.85Z"/>
      <path class="cls-2" d="m66.94,51.12c0-.5-.17-.89-.51-1.13-.64-.45-1.33-.83-2-1.23-.23-.14-.46-.28-.7-.42.02-.05.03-.11.05-.16.33.03.65.05.98.1.82.13,1.58.4,2.24.91.59.45.97,1.04.97,1.81,0,.81-.45,1.22-1.27,1.15-1.36-.13-3.05-1.67-3.31-3.02-.04-.19,0-.4,0-.65.52.58.98,1.16,1.51,1.66.54.52,1.2.86,2.04.99Z"/>
      <path class="cls-2" d="m80.14,38.4c.13,1.41.04,2.88,1.03,4.05.56-1.56-.01-2.94-.74-4.29.03-.03.06-.05.09-.08.14.07.3.12.43.22,1.15.89,1.77,2.96,1.32,4.36-.16.5-.43.89-.99.96-.53.07-.87-.26-1.11-.66-.84-1.4-.84-2.86-.3-4.36.03-.08.1-.14.15-.21.04,0,.08,0,.13,0Z"/>
      <path class="cls-2" d="m100.96,51.85c.5,1.28,1.08,2.51,2.39,3.13l.15-.07c-.1-.27-.13-.59-.3-.81-.47-.6-1-1.17-1.51-1.75-.18-.2-.35-.41-.46-.7.11.02.23.02.33.06,1.05.43,1.98,1.04,2.58,2.03.22.36.33.83.35,1.25.04.83-.68,1.32-1.45.98-1.29-.57-2.02-1.62-2.25-2.99-.06-.36,0-.73,0-1.1.06-.02.12-.03.18-.05Z"/>
      <path class="cls-2" d="m87.74,47.85c-.91.98-1.62,2.05-1.54,3.54.66-.33,1.06-.83,1.34-1.39.29-.56.49-1.16.78-1.85.3.6.25,1.15.15,1.66-.17.9-.64,1.65-1.35,2.25-.36.3-.77.46-1.24.35-.42-.1-.64-.41-.71-.82-.23-1.35.64-3.06,1.87-3.66.18-.09.39-.13.58-.2.04.04.07.08.11.12Z"/>
      <path class="cls-2" d="m100.72,36.27c-1.06.81-1.42,1.83-1.42,3,0,.13.07.27.1.4.14-.06.33-.08.43-.18.53-.55.65-1.28.78-2,.07-.38.14-.76.21-1.14.05,0,.11,0,.16,0,.08.24.18.48.22.73.16.91.15,1.8-.29,2.65-.37.72-.94,1.07-1.63,1.01-.47-.04-.95-.38-.98-.83-.11-1.3.18-2.48,1.23-3.36.3-.25.65-.39,1.19-.27Z"/>
      <path class="cls-2" d="m104.68,45.85c.01-.09.03-.17.06-.38.36.21.71.37.99.6.76.6,1.26,1.34,1.17,2.37-.06.69-.45,1.22-1,1.32-.67.13-1.36-.19-1.62-.82-.15-.36-.21-.78-.2-1.17.01-.55.11-1.09.2-1.63.03-.2.1-.43.4-.29.11.76.19,1.52.33,2.27.05.31.24.67.6.58.37-.09.33-.49.28-.79-.16-.83-.65-1.47-1.21-2.06Z"/>
      <path class="cls-2" d="m108,112.5c0,.43.07.88-.01,1.29-.34,1.59-1.34,2.73-2.7,3.55-1.68,1.02-3.54,1.4-5.49,1.4-.11,0-.21-.04-.32-.06,0-.04-.02-.08-.02-.12.22-.1.43-.21.66-.29,1.12-.39,2.26-.73,3.36-1.17,2.04-.82,3.54-2.19,4.25-4.34.03-.09.09-.18.13-.27.05,0,.09,0,.14.01Z"/>
      <path class="cls-2" d="m24.85,103.23c-.51,3.39-.14,6.68,1.09,9.88-.06.03-.13.05-.19.08-.17-.18-.36-.35-.51-.55-.79-1.09-1.24-2.33-1.45-3.65-.26-1.62-.22-3.22.34-4.79.12-.35.32-.68.48-1.02.08.02.16.03.24.05Z"/>
      <path class="cls-2" d="m93.1,119.8c-1.07.75-7.68.99-8.67.34.86-.73,7.47-1,8.67-.34Z"/>
      <path class="cls-2" d="m27.2,109.01c-1.18-.67-1.74-5.03-.84-5.79.08.18.2.33.23.5.24,1.58.47,3.16.68,4.74.02.16-.04.33-.07.55Z"/>
      <path class="cls-2" d="m51.46,77.52c.55-.25.93-.13,1.07.44.29,1.16.52,2.34.76,3.52.01.07-.05.2-.12.24-.4.24-.86.03-.96-.43-.26-1.23-.51-2.46-.77-3.7,0-.01,0-.03.02-.07Z"/>
      <path class="cls-2" d="m106.79,80.81c-.32.06-.48-.12-.54-.45-.23-1.16-.48-2.32-.71-3.48-.02-.12,0-.34.09-.38.14-.07.39-.12.49-.04.2.15.42.37.48.59.27,1.11.5,2.22.73,3.34.09.41-.22.41-.53.41Z"/>
      <path class="cls-1" d="m69.52,32.63c1.29.89,1.89,2.88,1.29,4.22-.07.15-.22.25-.34.38-.1-.1-.22-.19-.29-.31-.7-1.12-.82-2.35-.73-3.63.01-.21.04-.41.07-.66Z"/>
      <path class="cls-1" d="m54.21,27.05c-.64,1.17-1.43,2.21-2.65,2.85-.28.15-.7.43-.91.09-.11-.17.11-.7.33-.91.5-.47,1.08-.87,1.66-1.26.47-.32.99-.58,1.49-.87.03.03.05.06.08.1Z"/>
      <path class="cls-1" d="m104.68,45.85c.56.59,1.06,1.23,1.21,2.06.06.3.1.71-.28.79-.36.08-.55-.27-.6-.58-.13-.75-.22-1.51-.33-2.27,0,0,0,0,0,0Z"/>
    </g>
  </g>
</svg>