<?xml version="1.0" encoding="UTF-8"?>
<svg id="Layer_2" data-name="Layer 2" xmlns="http://www.w3.org/2000/svg" viewBox="0 0 123.05 111.75">
  <defs>
    <style>
      .cls-1 {
        fill: #f43400;
        stroke-width: 0px;
      }
    </style>
  </defs>
  <g id="Layer_1-2" data-name="Layer 1">
    <g>
      <path class="cls-1" d="m47.3,76.89c.07-5.52-1.02-9.06-3.2-12.23-3.36-4.9-7.49-8.74-13.7-9.62-3.66-.52-7.2-.28-10.5,1.54-2.3,1.27-3.92,3.1-4.35,5.81-.04.27-.21.55-.4.75-6.03,6.37-6.98,15.67-2.98,23.29,6.01,11.43,19.41,13.66,28.89,4.56,4.37-4.2,6.04-9.75,6.24-14.1Zm-11.95,7.8c-4.97,4.99-11.69,5.02-16.24-1.34-4.62-6.45-3.31-15.22,2.82-20.62,4.15-3.66,6.87-2.98,11.34.22,2.59,1.85,4.31,4.61,5.39,7.65.42,1.18.56,2.46.73,3.24-.25,4.38-1.28,8.08-4.04,10.85Z"/>
      <path class="cls-1" d="m30.49,54.06c4.64-.15,8.66-2.01,11.96-5.13,4.57-4.32,6.43-9.91,6.78-16.63-.16-1.08-.23-2.73-.67-4.27-1.71-6.03-5.38-10.68-10.82-13.65-4.81-2.62-10-2.9-15.13-.72-2.74,1.17-4.7,3.14-5.23,6.24-.05.27-.21.55-.4.75-6.97,7.43-6.9,18.28-1.39,25.85,3.66,5.03,8.58,7.77,14.91,7.57Zm-6.67-33.82c3.97-3.35,5.23-3.48,10.39-.41,3.61,2.15,5.75,5.78,6.76,9.94.05.2.09.41.11.61.03.5.05,1,.08,1.76-.16,3.59-1.21,7.22-3.89,9.96-4.82,4.95-11.34,5.14-15.93-.71-5.07-6.45-3.99-15.69,2.48-21.15Z"/>
      <path class="cls-1" d="m83.22,76.03c.92-.24.97-1.24.96-2-.02-2.56-.08-5.13-.24-7.69-.37-6.01-.81-12.02-1.2-18.04-.01-.21.13-.49.29-.64.85-.8,1.74-1.56,2.63-2.35.44.55.94,1.24,1.52,1.85.26.26.83.56,1.03.44.3-.17.43-.69.58-1.08.07-.18.04-.41.02-.62-.2-2.35-.28-4.72-.63-7.05-1.35-9.05-2.78-18.09-4.22-27.14-.22-1.39-.57-2.77-.95-4.14-.1-.37-.55-.95-.79-.92-.37.04-.8.45-1.02.81-.34.54-.57,1.17-.76,1.78-1.01,3.41-1.12,6.93-1.04,10.45.03,1.37.15,2.75.23,4.22-.2-.09-.31-.13-.41-.17-4.34-2.03-8.14-.31-9.45,4.29-.61,2.16-.8,4.38-.49,6.59.86,6.16,2.88,11.58,9.21,13.91-.54,2.77-1.09,5.56-1.65,8.37-.15-.08-.43-.23-.71-.38-4.25-2.26-8.39-.64-9.75,3.96-1.4,4.7-.2,8.88,3.06,12.46,1.8,1.98,4.1,2.95,6.82,2.75,1.71-.13,3.16-.85,4.44-2.02.26.4.46.77.72,1.09.47.58.87,1.48,1.76,1.25Zm-4.73-5.61c-1.47.5-2.86.38-3.93-.78-2.19-2.35-3.09-5.13-2.28-8.32.09-.36.58-.62.92-.9.12-.1.34-.11.51-.12.32-.02.65,0,.97,0,2.34-.01,2.27,0,2.7,2.24.45,2.31,1.01,4.6,1.59,6.89.14.56.05.8-.48.99Zm-.42-29.14c-2-3.11-2.88-6.57-2.99-10.26.08-.82.14-1.65.26-2.46.1-.66.44-1.26,1.13-1.32,1.1-.1,2.22-.08,3.33-.01.17.01.39.51.46.82.8,3.3,1.55,6.6,2.35,9.9.18.74.44,1.47.74,2.18.22.52.1.87-.21,1.29-1.83,2.44-3.42,2.44-5.07-.12Z"/>
      <path class="cls-1" d="m109.13,55.66c-.06.53-.19,1.06-.17,1.58.06,1.77.32,3.54.23,5.3-.3,5.83-4.95,10.03-10.77,9.8-2.63-.11-4.7-1.21-5.62-3.82-.4-1.12-.55-2.33-.82-3.5,3.77,1.87,6.72,1.62,9.42-.85,3.26-2.98,3.63-8.21.78-12.03-2.17-2.91-5.04-4.53-8.75-3.72-3.46.76-5.46,3.25-6.37,6.5-1.17,4.18-1.6,8.49-.88,12.8.71,4.26,2.8,7.63,6.94,9.4,6.92,2.96,15.76-.67,18.59-7.68,1.79-4.44,1.38-8.74-1.25-12.76-.29-.44-.88-.69-1.32-1.02Zm-16.2.87c.25-1.14.81-2.27,2.11-2.5,1.3-.23,2.31.54,2.99,1.55.61.9.96,1.97,1.23,2.54-.11,2.23-.87,3.53-2.38,4.32-1.5.79-2.92.47-4.26-.41-.2-.13-.4-.47-.38-.69.19-1.61.35-3.23.7-4.81Z"/>
      <path class="cls-1" d="m72.62,86.78c-3.39-.03-6.45,1.03-8.93,3.46-.23.22-.37.53-.65.94-.65-2.09-1.14-3.88-1.76-5.63-.41-1.16-.91-2.31-1.52-3.38-.5-.88-1.34-.85-1.79.05-.43.86-.76,1.81-.9,2.75-.56,3.95-.11,7.83,1,11.65,1.11,3.83,2.4,7.6,4.53,11.01.41.66.97,1.27,1.56,1.78.59.5,1.16.29,1.49-.41.1-.21.17-.44.22-.58,1.29.11,2.46.33,3.62.3,8.15-.26,13.31-6.93,11.46-14.63-1.03-4.3-4.34-7.27-8.35-7.3Zm.67,14.93c-2.05,1.83-4.45,2.81-7.2,2.44-.58-2.75-1.13-5.31-1.65-7.88-.05-.26.03-.66.21-.84,2.07-2.16,4.64-3.06,7.6-2.84.92.07,1.56.65,2.03,1.41,1.49,2.41,1.12,5.84-.99,7.72Z"/>
      <path class="cls-1" d="m94.94,44.42c7.16,2.96,16.65-2.22,16.02-11.33-.15-2.13-.81-4.12-2.36-5.69-.2-.21-.55-.28-.83-.41-.11.29-.3.57-.3.86,0,1.09.09,2.19.07,3.28-.06,4.63-2.67,7.75-6.94,8.35-3.02.42-5.42-1.51-5.34-4.29,2.47.7,3.59.68,5.13-.06,3.95-1.9,5.15-6.92,2.61-10.88-1.73-2.7-4.73-4.14-7.54-3.53-3.15.68-4.9,2.87-5.71,5.81-.85,3.12-1.17,6.35-.72,9.57.53,3.76,2.24,6.81,5.91,8.33Zm.84-16.78c.45-1.48,1.45-1.66,2.58-.59,1.08,1.02,1.39,2.53.78,3.7-.65,1.24-1.83,1.8-3.16,1.53-.62-.13-.98-.39-.87-1.09.22-1.18.32-2.4.67-3.54Z"/>
      <path class="cls-1" d="m56.48,59.66c.24.34.47.69.6,1.08.49,1.45,1.01,2.9,1.38,4.38.76,3,1.39,6.03,2.16,9.03.2.78.65,1.52,1.11,2.19.46.66,1.08.61,1.51-.06.31-.49.57-1.05.71-1.61.94-3.69.96-7.43.43-11.17-.36-2.51-1.17-4.88-2.72-6.93-3.17-4.2-9.04-4.74-11.63.77-.22-.24-.34-.47-.54-.58-.52-.28-1.12-.75-1.6-.66-.4.08-.85.81-.94,1.31-.2,1.06-.29,2.17-.22,3.25.36,5.02,1.75,9.8,3.55,14.47.36.93.8,1.85,1.34,2.68.88,1.36,1.97,1.29,2.53-.2.41-1.09.67-2.28.73-3.44.23-4.73-.99-9.18-2.92-13.45-.15-.34-.3-.67-.46-1.02.65-.33,1.19-.62,1.75-.89,1.58-.76,2.21-.6,3.22.83Z"/>
      <path class="cls-1" d="m65.7,47.29c.4-.61.72-1.3.92-1.99,1.14-3.94,1.42-7.96.86-12.01-.35-2.55-1.21-4.93-2.98-6.89-2.87-3.19-7.13-3.37-9.78-.4-.39.43-.69.94-1.07,1.45-.14-.16-.23-.32-.37-.4-.51-.29-1.11-.84-1.55-.74-.44.1-.92.8-1.07,1.33-.27.92-.41,1.91-.41,2.87.01,5.46,1.15,10.72,2.91,15.86.2.58.47,1.15.8,1.67.82,1.31,1.77,1.27,2.53-.1.24-.43.42-.91.56-1.39.87-3.15.7-6.34.05-9.48-.49-2.38-1.24-4.71-1.9-7.17.32-.14.77-.34,1.23-.53,2.09-.87,2.97-.63,3.83,1.49.66,1.65,1.05,3.43,1.39,5.18.6,3.12,1.05,6.28,1.61,9.41.11.62.43,1.23.76,1.78.5.82,1.15.85,1.67.06Z"/>
      <path class="cls-1" d="m95.7,80.58c-.33-.19-.89.01-1.35.04.02.44-.02.9.08,1.33.38,1.51.96,2.98,1.2,4.51.33,2.17-.06,4.26-1.55,5.98-1.68,1.94-4.04,1.83-5.32-.38-1.21-2.1-2.12-4.37-2.07-6.86.02-1.18.23-2.35.33-3.52.08-.95-.37-1.32-1.21-.88-.63.33-1.24.82-1.69,1.38-1.41,1.74-2.02,3.78-2.11,6.05.32,1.71.49,3.46,1,5.11,1.05,3.38,3.2,5.84,6.82,6.47,3.82.67,6.92-.77,9.16-3.9,2.77-3.87,2.5-9.76-.63-13.37-.71-.82-1.72-1.4-2.67-1.95Z"/>
      <path class="cls-1" d="m55.09,101.91c-1.04-4.85-1.97-9.72-3.72-14.38-.4-1.07-.89-2.13-1.46-3.12-.52-.89-1.17-.89-1.83-.08-.39.48-.72,1.01-1.01,1.56-1.51,2.91-2.12,6.05-2.21,9.37.04,3.45.75,6.8,2.53,9.86,1.74,2.99,4.04,5.4,7.44,6.46.65.2,1.59.26,2.06-.08.32-.23.19-1.3.05-1.94-.58-2.56-1.31-5.08-1.86-7.65Z"/>
      <path class="cls-1" d="m112.08,48.02c.38.03.77.03,1.15-.04,3.89-.66,8.03-5.47,8.13-9.58-.01-.15-.02-.45-.07-.74-.2-1.29-1.07-1.86-2.29-1.4-.6.22-1.18.56-1.68.96-2.4,1.91-4.38,4.2-5.9,6.87-.38.67-.63,1.47-.76,2.24-.17,1.04.38,1.62,1.43,1.7Z"/>
      <path class="cls-1" d="m8.09,52.55c.74.38,1.61.51,2.42.76,1.56-.13,2.16-.82,1.83-2.31-.15-.65-.36-1.35-.75-1.87-1.48-1.94-2.98-3.87-4.6-5.68-.71-.79-1.67-1.41-2.62-1.91-1.41-.75-2.51-.06-2.63,1.55-.04.58-.02,1.19.12,1.75.87,3.53,3.02,6.08,6.24,7.71Z"/>
      <path class="cls-1" d="m38.67,96.38c-2.68.88-5.34,1.83-8.01,2.76-.28.1-.54.24-.79.39-1.55.9-1.64,2.14-.21,3.26,1.29,1.01,2.79,1.36,4.77,1.33,2.9,0,5.82-1.82,6.95-4.62.37-.9.72-1.91,0-2.77-.74-.89-1.8-.65-2.72-.35Z"/>
      <path class="cls-1" d="m121.85,55.2c-2.07-1.99-4.47-3.46-7.29-4.14-.96-.23-2.01-.36-2.69.54-.7.91-.28,1.91.09,2.86.04.11.09.22.15.32,1.72,2.88,4.31,4.33,7.46,4.61.38-.03.62-.03.85-.07,1.04-.17,2.12-.36,2.51-1.5.39-1.12-.38-1.93-1.09-2.62Z"/>
      <path class="cls-1" d="m11.45,57.91c.18-1.1-.36-1.64-1.47-1.79-.4-.05-.84-.05-1.23.03-3.09.68-5.67,2.28-7.87,4.52-.2.21-.37.46-.52.72-.67,1.17-.4,2.13.85,2.67.64.28,1.35.37,1.79.49,3.24-.21,5.69-1.43,7.41-3.88.55-.78.88-1.8,1.04-2.76Z"/>
      <path class="cls-1" d="m49.45,15.35c-.06,1.54-.89,1.48-1.98.87-.94-.52-1.38-1.41-1.66-2.41-.16-.54-.37-1.07-.64-1.85-.22.47-.35.66-.41.87-.55,1.82.37,3.97,2.06,4.84,1.67.86,2.95.43,3.72-1.26.11.03.22.04.33.08.76.26,1.48.22,2.05-.38.57-.61.52-1.35.25-2.08-.49-1.3-1.44-2.07-2.79-2.31-.61-.11-1.23-.08-1.69.64,1.5.44,2.81,1.04,3.17,2.98-.85-.15-1.54-.27-2.26-.4-.05.15-.12.28-.12.42Z"/>
      <path class="cls-1" d="m35.72,10.69c1.14.39,1.61,2.12,3.45,2.09-.58-1.02-1.07-1.89-1.58-2.77,1.25-.68,2.47-1.35,3.68-2.01-.05-.13-.1-.26-.15-.39-1.65-.56-3.02.27-4.46,1.16-.31-.49-.6-.95-.94-1.48,1.4-.74,2.67-1.42,3.95-2.1-.2-.59-.69-.87-1.56-.7-1.77.34-3.1,1.37-4.14,2.81-.12.16-.12.41-.19.71h.97c.33.91.64,1.77.97,2.69Z"/>
      <path class="cls-1" d="m49.9,7.23c.15-.23.42-.46.42-.69,0-.81-.11-1.62-.18-2.5.53-.21.94-.05,1.14.6.13.42.24.86.43,1.25.13.26.39.44.59.66.16-.26.44-.51.46-.79.07-.72.02-1.44.02-2.25.67-.21.82.3.92.9.11.66.23,1.31.37,2.08,1.29-.98,1.48-2.94.58-3.85-.63-.64-1.49-.66-2.25-.12-.21.15-.55.22-.8.16-.93-.22-2.63.45-2.82,1.24-.24,1.01-.1,2,.49,2.88.13.19.41.29.62.43Z"/>
      <path class="cls-1" d="m73.98,19.13c.7.48,1.43.54,2.15.07.69-.45,1.09-1.08,1.07-2.02-.9.37-1.44,1.77-2.67.58,1.89-.75,2.58-2.15,1.87-3.76-.17-.37-.6-.8-.97-.86-.37-.06-.96.22-1.17.53-.49.72-.91,1.52-1.18,2.35-.41,1.28,0,2.47.89,3.1Z"/>
      <path class="cls-1" d="m61.95,5.58c.29.6.83,1.09,1.49,1.2,1.98.33,3.12-2.01,2.36-3.37-.54-.97-1.55-1.1-2.84-.38-.05.03-.11.02-.21.04-.38-1.02-.77-2.04-1.15-3.07-.13,0-.26,0-.4,0-.1.43-.28.85-.29,1.29-.05,1.53.39,2.94,1.05,4.3Zm2.44-.88c.35.28-.21,1.18-.95,1.54-.12-.49-.23-.96-.42-1.74.58.07,1.1-.02,1.38.2Z"/>
      <path class="cls-1" d="m63.56,15.75c-.77-.03-1.88,1.42-1.91,2.5-.04,1.32.97,2.42,2.26,2.47,1.26.05,2.32-.91,2.36-2.13.05-1.44-1.24-2.79-2.71-2.84Zm.46,3.33c-.42-.11-.75-.52-1.28-.94.46-.55.76-.91,1.05-1.26.35.47.78.9.99,1.42.06.15-.57.83-.76.78Z"/>
      <path class="cls-1" d="m69.51,17.76c-.65-1.13-1.29-2.27-2.08-3.65-.12.55-.23.85-.24,1.16-.04,1.4.5,2.6,1.43,3.61.88.96,1.8.9,2.43-.23.7-1.24.99-2.6.72-4.02-.08-.41-.37-.77-.61-1.25-.45,1.58-.84,2.96-1.23,4.34-.14.01-.27.02-.41.03Z"/>
      <path class="cls-1" d="m59.51,8.28c-.13.02-.3.28-.31.45-.12,1.58.25,3.04,1.09,4.38.11.17.37.23.56.35.11-.19.29-.37.31-.57.04-.55.01-1.1.01-1.62,1.49-.36,1.74,1.4,2.9,1.72.37-.95.19-1.72-.38-2.39-.77-.9-1.75-1-2.87-.61-.29-.52-.53-1-.81-1.44-.1-.15-.35-.29-.5-.27Z"/>
      <path class="cls-1" d="m60.24,22.32c.99-.12,1.52-.66,1.5-1.65-1.31.74-2.52.46-3.41-.6-.52-.62-.81-1.48-1.1-2.26-.22-.59-.28-1.24-.45-2.08-.95.93-.84,1.89-.79,2.81.14,2.32,2.08,4.03,4.24,3.78Z"/>
      <path class="cls-1" d="m68.7,7.48c.9,0,1.67-.61,1.99-1.6.34-1.05.14-2.04-.6-2.59-.21.63-.35,1.26-.62,1.83-.15.3-.51.5-.78.75-.23-.28-.57-.53-.66-.85-.19-.7-.25-1.44-.38-2.27-.95.69-1.28,2.03-.91,3.2.29.92,1.05,1.52,1.95,1.53Z"/>
      <path class="cls-1" d="m46.53,7.73c.94-.07,1.65-.91,1.58-1.88-.08-1.09-.78-1.73-1.83-1.66-1.29.09-1.8.58-1.71,1.67.09,1.08.98,1.94,1.96,1.87Z"/>
      <path class="cls-1" d="m55.75,13.04c.87.87,1.71,1.09,2.55.59-.43-.5-.85-.99-1.28-1.48.36-.23.71-.34.88-.59.2-.28.24-.67.35-1.01-.32-.08-.65-.25-.96-.22-.39.04-.76.26-1.17.4-.18-.28-.36-.55-.52-.83-.17-.3-.32-.62-.48-.93-.86,1.28-.44,3,.62,4.06Z"/>
      <path class="cls-1" d="m60.67,7.07c-.62-1.95-1.21-3.81-1.83-5.8-.98,1-.99,2.9-.19,4.43.39.76.85,1.48,2.03,1.37Z"/>
      <path class="cls-1" d="m75.02,8.14c.73-.2,1.44-.48,2.12-.81.21-.1.5-.52.44-.65-.11-.24-.43-.46-.7-.52-.42-.08-.87-.02-1.33-.02-.16-.26-.3-.6-.54-.84-.18-.18-.53-.37-.74-.31-.18.05-.38.46-.35.69.09.69.23,1.38.45,2.04.06.2.48.46.65.41Z"/>
      <path class="cls-1" d="m44.1,9.16c-.32-.58-.89-1.15-.91-1.75-.02-.53.56-1.09.87-1.63-.68-.43-1.73-.21-2.31.49-.52.62-.35,1.67.39,2.47.66.71,1.34.87,1.95.42Z"/>
      <path class="cls-1" d="m54.54,14.63c.61.19.96-.17.71-.65-.39-.75-.93-1.45-1.55-2.02-.39-.36-.76-.07-.75.51-.01.78.82,1.92,1.58,2.16Z"/>
      <path class="cls-1" d="m52.3,11.88c.69-.28.89-.73.61-1.41-.81.22-.96.55-.61,1.41Z"/>
    </g>
  </g>
</svg>